<mxfile host="Electron" modified="2023-04-24T05:56:56.249Z" agent="Mozilla/5.0 (Windows NT 10.0; Win64; x64) AppleWebKit/537.36 (KHTML, like Gecko) draw.io/21.1.2 Chrome/106.0.5249.199 Electron/21.4.3 Safari/537.36" etag="ZLG1wHpW4ZC2XrfU1IDU" version="21.1.2" type="device">
  <diagram name="Page-1" id="qBd7uf1Q0alRWnuenfbn">
    <mxGraphModel dx="4323" dy="2135" grid="1" gridSize="10" guides="1" tooltips="1" connect="1" arrows="1" fold="1" page="1" pageScale="1" pageWidth="850" pageHeight="1100" math="0" shadow="0">
      <root>
        <mxCell id="0" />
        <mxCell id="1" parent="0" />
        <mxCell id="MxvVfjlIRxyCvqryUWun-1" value="&lt;div style=&quot;border: 0px; font-variant-numeric: inherit; font-variant-east-asian: inherit; font-stretch: inherit; line-height: inherit; font-family: OpenSans, Arial, Helvetica, sans-serif; font-optical-sizing: inherit; font-kerning: inherit; font-feature-settings: inherit; font-variation-settings: inherit; font-size: 16px; margin: 0px; outline: 0px; padding: 0px; vertical-align: baseline; color: rgb(14, 20, 30); text-align: start; background-color: rgb(255, 255, 255);&quot; class=&quot;challenge_problem_statement&quot;&gt;&lt;div style=&quot;border: 0px; font-style: inherit; font-variant: inherit; font-weight: inherit; font-stretch: inherit; line-height: inherit; font-family: inherit; font-optical-sizing: inherit; font-kerning: inherit; font-feature-settings: inherit; font-variation-settings: inherit; margin: 0px 0px 10px; outline: 0px; padding: 0px; vertical-align: baseline;&quot; class=&quot;msB challenge_problem_statement_body&quot;&gt;&lt;div style=&quot;border: 0px; font-style: inherit; font-variant: inherit; font-weight: inherit; font-stretch: inherit; line-height: inherit; font-family: inherit; font-optical-sizing: inherit; font-kerning: inherit; font-feature-settings: inherit; font-variation-settings: inherit; margin: 0px; outline: 0px; padding: 0px; vertical-align: baseline;&quot; class=&quot;hackdown-content&quot;&gt;&lt;p style=&quot;border: 0px; font-style: inherit; font-variant: inherit; font-stretch: inherit; line-height: 2; font-family: var(--font-family-text); font-optical-sizing: inherit; font-kerning: inherit; font-feature-settings: inherit; font-variation-settings: inherit; font-size: 14px; margin: 5px 0px 0px; outline: 0px; padding: 0px; vertical-align: baseline; color: var(--color-text-dark-faded,#576871);&quot;&gt;You are given an array and you need to find number of tripets of indices&amp;nbsp;&lt;svg role=&quot;img&quot; viewBox=&quot;0 -863.1 2948.8 1223.9&quot; style=&quot;vertical-align: -0.838ex;&quot; height=&quot;2.843ex&quot; width=&quot;6.849ex&quot; xmlns:xlink=&quot;http://www.w3.org/1999/xlink&quot;&gt;&lt;g transform=&quot;matrix(1 0 0 -1 0 0)&quot; stroke-width=&quot;0&quot; fill=&quot;currentColor&quot; stroke=&quot;currentColor&quot;&gt;&lt;path d=&quot;M94 250Q94 319 104 381T127 488T164 576T202 643T244 695T277 729T302 750H315H319Q333 750 333 741Q333 738 316 720T275 667T226 581T184 443T167 250T184 58T225 -81T274 -167T316 -220T333 -241Q333 -250 318 -250H315H302L274 -226Q180 -141 137 -14T94 250Z&quot; stroke-width=&quot;1&quot;&gt;&lt;/path&gt;&lt;g transform=&quot;translate(389,0)&quot;&gt;&lt;path d=&quot;M184 600Q184 624 203 642T247 661Q265 661 277 649T290 619Q290 596 270 577T226 557Q211 557 198 567T184 600ZM21 287Q21 295 30 318T54 369T98 420T158 442Q197 442 223 419T250 357Q250 340 236 301T196 196T154 83Q149 61 149 51Q149 26 166 26Q175 26 185 29T208 43T235 78T260 137Q263 149 265 151T282 153Q302 153 302 143Q302 135 293 112T268 61T223 11T161 -11Q129 -11 102 10T74 74Q74 91 79 106T122 220Q160 321 166 341T173 380Q173 404 156 404H154Q124 404 99 371T61 287Q60 286 59 284T58 281T56 279T53 278T49 278T41 278H27Q21 284 21 287Z&quot; stroke-width=&quot;1&quot;&gt;&lt;/path&gt;&lt;/g&gt;&lt;g transform=&quot;translate(735,0)&quot;&gt;&lt;path d=&quot;M78 35T78 60T94 103T137 121Q165 121 187 96T210 8Q210 -27 201 -60T180 -117T154 -158T130 -185T117 -194Q113 -194 104 -185T95 -172Q95 -168 106 -156T131 -126T157 -76T173 -3V9L172 8Q170 7 167 6T161 3T152 1T140 0Q113 0 96 17Z&quot; stroke-width=&quot;1&quot;&gt;&lt;/path&gt;&lt;/g&gt;&lt;g transform=&quot;translate(1180,0)&quot;&gt;&lt;path d=&quot;M297 596Q297 627 318 644T361 661Q378 661 389 651T403 623Q403 595 384 576T340 557Q322 557 310 567T297 596ZM288 376Q288 405 262 405Q240 405 220 393T185 362T161 325T144 293L137 279Q135 278 121 278H107Q101 284 101 286T105 299Q126 348 164 391T252 441Q253 441 260 441T272 442Q296 441 316 432Q341 418 354 401T367 348V332L318 133Q267 -67 264 -75Q246 -125 194 -164T75 -204Q25 -204 7 -183T-12 -137Q-12 -110 7 -91T53 -71Q70 -71 82 -81T95 -112Q95 -148 63 -167Q69 -168 77 -168Q111 -168 139 -140T182 -74L193 -32Q204 11 219 72T251 197T278 308T289 365Q289 372 288 376Z&quot; stroke-width=&quot;1&quot;&gt;&lt;/path&gt;&lt;/g&gt;&lt;g transform=&quot;translate(1592,0)&quot;&gt;&lt;path d=&quot;M78 35T78 60T94 103T137 121Q165 121 187 96T210 8Q210 -27 201 -60T180 -117T154 -158T130 -185T117 -194Q113 -194 104 -185T95 -172Q95 -168 106 -156T131 -126T157 -76T173 -3V9L172 8Q170 7 167 6T161 3T152 1T140 0Q113 0 96 17Z&quot; stroke-width=&quot;1&quot;&gt;&lt;/path&gt;&lt;/g&gt;&lt;g transform=&quot;translate(2037,0)&quot;&gt;&lt;path d=&quot;M121 647Q121 657 125 670T137 683Q138 683 209 688T282 694Q294 694 294 686Q294 679 244 477Q194 279 194 272Q213 282 223 291Q247 309 292 354T362 415Q402 442 438 442Q468 442 485 423T503 369Q503 344 496 327T477 302T456 291T438 288Q418 288 406 299T394 328Q394 353 410 369T442 390L458 393Q446 405 434 405H430Q398 402 367 380T294 316T228 255Q230 254 243 252T267 246T293 238T320 224T342 206T359 180T365 147Q365 130 360 106T354 66Q354 26 381 26Q429 26 459 145Q461 153 479 153H483Q499 153 499 144Q499 139 496 130Q455 -11 378 -11Q333 -11 305 15T277 90Q277 108 280 121T283 145Q283 167 269 183T234 206T200 217T182 220H180Q168 178 159 139T145 81T136 44T129 20T122 7T111 -2Q98 -11 83 -11Q66 -11 57 -1T48 16Q48 26 85 176T158 471L195 616Q196 629 188 632T149 637H144Q134 637 131 637T124 640T121 647Z&quot; stroke-width=&quot;1&quot;&gt;&lt;/path&gt;&lt;/g&gt;&lt;g transform=&quot;translate(2559,0)&quot;&gt;&lt;path d=&quot;M60 749L64 750Q69 750 74 750H86L114 726Q208 641 251 514T294 250Q294 182 284 119T261 12T224 -76T186 -143T145 -194T113 -227T90 -246Q87 -249 86 -250H74Q66 -250 63 -250T58 -247T55 -238Q56 -237 66 -225Q221 -64 221 250T66 725Q56 737 55 738Q55 746 60 749Z&quot; stroke-width=&quot;1&quot;&gt;&lt;/path&gt;&lt;/g&gt;&lt;/g&gt;&lt;/svg&gt;&amp;nbsp;such that the elements at those indices are in&amp;nbsp;&lt;a style=&quot;border: 0px; font-style: inherit; font-variant: inherit; font-stretch: inherit; line-height: inherit; font-family: var(--font-family-text); font-optical-sizing: inherit; font-kerning: inherit; font-feature-settings: inherit; font-variation-settings: inherit; margin: 0px; outline: 0px; padding: 0px; vertical-align: baseline; background-color: transparent; text-decoration-line: none; color: rgb(7, 92, 142);&quot; href=&quot;https://en.wikipedia.org/wiki/Geometric_progression&quot;&gt;geometric progression&lt;/a&gt;&amp;nbsp;for a given common ratio&amp;nbsp;&lt;span style=&quot;border: 0px; font-variant: inherit; font-stretch: inherit; line-height: normal; font-family: inherit; font-optical-sizing: inherit; font-kerning: inherit; font-feature-settings: inherit; font-variation-settings: inherit; margin: 0px; outline: 0px; padding: 0px; vertical-align: baseline; display: inline-block; word-spacing: normal; overflow-wrap: normal; float: none; direction: ltr; max-width: none; max-height: none; min-width: 0px; min-height: 0px;&quot; id=&quot;MathJax-Element-2-Frame&quot; class=&quot;MathJax_SVG&quot;&gt;&lt;svg role=&quot;img&quot; viewBox=&quot;0 -576.1 451.5 721.6&quot; style=&quot;vertical-align: -0.338ex;&quot; height=&quot;1.676ex&quot; width=&quot;1.049ex&quot; xmlns:xlink=&quot;http://www.w3.org/1999/xlink&quot;&gt;&lt;g transform=&quot;matrix(1 0 0 -1 0 0)&quot; stroke-width=&quot;0&quot; fill=&quot;currentColor&quot; stroke=&quot;currentColor&quot;&gt;&lt;path d=&quot;M21 287Q22 290 23 295T28 317T38 348T53 381T73 411T99 433T132 442Q161 442 183 430T214 408T225 388Q227 382 228 382T236 389Q284 441 347 441H350Q398 441 422 400Q430 381 430 363Q430 333 417 315T391 292T366 288Q346 288 334 299T322 328Q322 376 378 392Q356 405 342 405Q286 405 239 331Q229 315 224 298T190 165Q156 25 151 16Q138 -11 108 -11Q95 -11 87 -5T76 7T74 17Q74 30 114 189T154 366Q154 405 128 405Q107 405 92 377T68 316T57 280Q55 278 41 278H27Q21 284 21 287Z&quot; stroke-width=&quot;1&quot;&gt;&lt;/path&gt;&lt;/g&gt;&lt;/svg&gt;&lt;/span&gt;&amp;nbsp;and&amp;nbsp;&lt;span style=&quot;border: 0px; font-variant: inherit; font-stretch: inherit; line-height: normal; font-family: inherit; font-optical-sizing: inherit; font-kerning: inherit; font-feature-settings: inherit; font-variation-settings: inherit; margin: 0px; outline: 0px; padding: 0px; vertical-align: baseline; display: inline-block; word-spacing: normal; overflow-wrap: normal; float: none; direction: ltr; max-width: none; max-height: none; min-width: 0px; min-height: 0px;&quot; id=&quot;MathJax-Element-3-Frame&quot; class=&quot;MathJax_SVG&quot;&gt;&lt;svg role=&quot;img&quot; viewBox=&quot;0 -791.3 3947.6 1080.4&quot; style=&quot;vertical-align: -0.671ex;&quot; height=&quot;2.509ex&quot; width=&quot;9.169ex&quot; xmlns:xlink=&quot;http://www.w3.org/1999/xlink&quot;&gt;&lt;g transform=&quot;matrix(1 0 0 -1 0 0)&quot; stroke-width=&quot;0&quot; fill=&quot;currentColor&quot; stroke=&quot;currentColor&quot;&gt;&lt;path d=&quot;M184 600Q184 624 203 642T247 661Q265 661 277 649T290 619Q290 596 270 577T226 557Q211 557 198 567T184 600ZM21 287Q21 295 30 318T54 369T98 420T158 442Q197 442 223 419T250 357Q250 340 236 301T196 196T154 83Q149 61 149 51Q149 26 166 26Q175 26 185 29T208 43T235 78T260 137Q263 149 265 151T282 153Q302 153 302 143Q302 135 293 112T268 61T223 11T161 -11Q129 -11 102 10T74 74Q74 91 79 106T122 220Q160 321 166 341T173 380Q173 404 156 404H154Q124 404 99 371T61 287Q60 286 59 284T58 281T56 279T53 278T49 278T41 278H27Q21 284 21 287Z&quot; stroke-width=&quot;1&quot;&gt;&lt;/path&gt;&lt;g transform=&quot;translate(623,0)&quot;&gt;&lt;path d=&quot;M694 -11T694 -19T688 -33T678 -40Q671 -40 524 29T234 166L90 235Q83 240 83 250Q83 261 91 266Q664 540 678 540Q681 540 687 534T694 519T687 505Q686 504 417 376L151 250L417 124Q686 -4 687 -5Q694 -11 694 -19Z&quot; stroke-width=&quot;1&quot;&gt;&lt;/path&gt;&lt;/g&gt;&lt;g transform=&quot;translate(1679,0)&quot;&gt;&lt;path d=&quot;M297 596Q297 627 318 644T361 661Q378 661 389 651T403 623Q403 595 384 576T340 557Q322 557 310 567T297 596ZM288 376Q288 405 262 405Q240 405 220 393T185 362T161 325T144 293L137 279Q135 278 121 278H107Q101 284 101 286T105 299Q126 348 164 391T252 441Q253 441 260 441T272 442Q296 441 316 432Q341 418 354 401T367 348V332L318 133Q267 -67 264 -75Q246 -125 194 -164T75 -204Q25 -204 7 -183T-12 -137Q-12 -110 7 -91T53 -71Q70 -71 82 -81T95 -112Q95 -148 63 -167Q69 -168 77 -168Q111 -168 139 -140T182 -74L193 -32Q204 11 219 72T251 197T278 308T289 365Q289 372 288 376Z&quot; stroke-width=&quot;1&quot;&gt;&lt;/path&gt;&lt;/g&gt;&lt;g transform=&quot;translate(2369,0)&quot;&gt;&lt;path d=&quot;M694 -11T694 -19T688 -33T678 -40Q671 -40 524 29T234 166L90 235Q83 240 83 250Q83 261 91 266Q664 540 678 540Q681 540 687 534T694 519T687 505Q686 504 417 376L151 250L417 124Q686 -4 687 -5Q694 -11 694 -19Z&quot; stroke-width=&quot;1&quot;&gt;&lt;/path&gt;&lt;/g&gt;&lt;g transform=&quot;translate(3426,0)&quot;&gt;&lt;path d=&quot;M121 647Q121 657 125 670T137 683Q138 683 209 688T282 694Q294 694 294 686Q294 679 244 477Q194 279 194 272Q213 282 223 291Q247 309 292 354T362 415Q402 442 438 442Q468 442 485 423T503 369Q503 344 496 327T477 302T456 291T438 288Q418 288 406 299T394 328Q394 353 410 369T442 390L458 393Q446 405 434 405H430Q398 402 367 380T294 316T228 255Q230 254 243 252T267 246T293 238T320 224T342 206T359 180T365 147Q365 130 360 106T354 66Q354 26 381 26Q429 26 459 145Q461 153 479 153H483Q499 153 499 144Q499 139 496 130Q455 -11 378 -11Q333 -11 305 15T277 90Q277 108 280 121T283 145Q283 167 269 183T234 206T200 217T182 220H180Q168 178 159 139T145 81T136 44T129 20T122 7T111 -2Q98 -11 83 -11Q66 -11 57 -1T48 16Q48 26 85 176T158 471L195 616Q196 629 188 632T149 637H144Q134 637 131 637T124 640T121 647Z&quot; stroke-width=&quot;1&quot;&gt;&lt;/path&gt;&lt;/g&gt;&lt;/g&gt;&lt;/svg&gt;&lt;/span&gt;.&lt;/p&gt;&lt;p style=&quot;border: 0px; font-style: inherit; font-variant: inherit; font-stretch: inherit; line-height: 2; font-family: var(--font-family-text); font-optical-sizing: inherit; font-kerning: inherit; font-feature-settings: inherit; font-variation-settings: inherit; font-size: 14px; margin: 5px 0px 0px; outline: 0px; padding: 0px; vertical-align: baseline; color: var(--color-text-dark-faded,#576871);&quot;&gt;&lt;span style=&quot;border: 0px; font-style: inherit; font-variant: inherit; font-weight: bolder; font-stretch: inherit; line-height: inherit; font-family: inherit; font-optical-sizing: inherit; font-kerning: inherit; font-feature-settings: inherit; font-variation-settings: inherit; margin: 0px; outline: 0px; padding: 0px; vertical-align: baseline; color: var(--color-text-dark,#0e141e);&quot;&gt;Example&lt;/span&gt;&lt;br&gt;&lt;span style=&quot;border: 0px; font-variant: inherit; font-stretch: inherit; line-height: normal; font-family: inherit; font-optical-sizing: inherit; font-kerning: inherit; font-feature-settings: inherit; font-variation-settings: inherit; margin: 0px; outline: 0px; padding: 0px; vertical-align: baseline; display: inline-block; word-spacing: normal; overflow-wrap: normal; float: none; direction: ltr; max-width: none; max-height: none; min-width: 0px; min-height: 0px;&quot; id=&quot;MathJax-Element-4-Frame&quot; class=&quot;MathJax_SVG&quot;&gt;&lt;svg role=&quot;img&quot; viewBox=&quot;0 -863.1 7662.1 1223.9&quot; style=&quot;vertical-align: -0.838ex;&quot; height=&quot;2.843ex&quot; width=&quot;17.796ex&quot; xmlns:xlink=&quot;http://www.w3.org/1999/xlink&quot;&gt;&lt;g transform=&quot;matrix(1 0 0 -1 0 0)&quot; stroke-width=&quot;0&quot; fill=&quot;currentColor&quot; stroke=&quot;currentColor&quot;&gt;&lt;path d=&quot;M33 157Q33 258 109 349T280 441Q331 441 370 392Q386 422 416 422Q429 422 439 414T449 394Q449 381 412 234T374 68Q374 43 381 35T402 26Q411 27 422 35Q443 55 463 131Q469 151 473 152Q475 153 483 153H487Q506 153 506 144Q506 138 501 117T481 63T449 13Q436 0 417 -8Q409 -10 393 -10Q359 -10 336 5T306 36L300 51Q299 52 296 50Q294 48 292 46Q233 -10 172 -10Q117 -10 75 30T33 157ZM351 328Q351 334 346 350T323 385T277 405Q242 405 210 374T160 293Q131 214 119 129Q119 126 119 118T118 106Q118 61 136 44T179 26Q217 26 254 59T298 110Q300 114 325 217T351 328Z&quot; stroke-width=&quot;1&quot;&gt;&lt;/path&gt;&lt;g transform=&quot;translate(529,0)&quot;&gt;&lt;path d=&quot;M21 287Q22 290 23 295T28 317T38 348T53 381T73 411T99 433T132 442Q161 442 183 430T214 408T225 388Q227 382 228 382T236 389Q284 441 347 441H350Q398 441 422 400Q430 381 430 363Q430 333 417 315T391 292T366 288Q346 288 334 299T322 328Q322 376 378 392Q356 405 342 405Q286 405 239 331Q229 315 224 298T190 165Q156 25 151 16Q138 -11 108 -11Q95 -11 87 -5T76 7T74 17Q74 30 114 189T154 366Q154 405 128 405Q107 405 92 377T68 316T57 280Q55 278 41 278H27Q21 284 21 287Z&quot; stroke-width=&quot;1&quot;&gt;&lt;/path&gt;&lt;/g&gt;&lt;g transform=&quot;translate(981,0)&quot;&gt;&lt;path d=&quot;M21 287Q22 290 23 295T28 317T38 348T53 381T73 411T99 433T132 442Q161 442 183 430T214 408T225 388Q227 382 228 382T236 389Q284 441 347 441H350Q398 441 422 400Q430 381 430 363Q430 333 417 315T391 292T366 288Q346 288 334 299T322 328Q322 376 378 392Q356 405 342 405Q286 405 239 331Q229 315 224 298T190 165Q156 25 151 16Q138 -11 108 -11Q95 -11 87 -5T76 7T74 17Q74 30 114 189T154 366Q154 405 128 405Q107 405 92 377T68 316T57 280Q55 278 41 278H27Q21 284 21 287Z&quot; stroke-width=&quot;1&quot;&gt;&lt;/path&gt;&lt;/g&gt;&lt;g transform=&quot;translate(1710,0)&quot;&gt;&lt;path d=&quot;M56 347Q56 360 70 367H707Q722 359 722 347Q722 336 708 328L390 327H72Q56 332 56 347ZM56 153Q56 168 72 173H708Q722 163 722 153Q722 140 707 133H70Q56 140 56 153Z&quot; stroke-width=&quot;1&quot;&gt;&lt;/path&gt;&lt;/g&gt;&lt;g transform=&quot;translate(2766,0)&quot;&gt;&lt;path d=&quot;M118 -250V750H255V710H158V-210H255V-250H118Z&quot; stroke-width=&quot;1&quot;&gt;&lt;/path&gt;&lt;/g&gt;&lt;g transform=&quot;translate(3045,0)&quot;&gt;&lt;path d=&quot;M213 578L200 573Q186 568 160 563T102 556H83V602H102Q149 604 189 617T245 641T273 663Q275 666 285 666Q294 666 302 660V361L303 61Q310 54 315 52T339 48T401 46H427V0H416Q395 3 257 3Q121 3 100 0H88V46H114Q136 46 152 46T177 47T193 50T201 52T207 57T213 61V578Z&quot; stroke-width=&quot;1&quot;&gt;&lt;/path&gt;&lt;/g&gt;&lt;g transform=&quot;translate(3545,0)&quot;&gt;&lt;path d=&quot;M78 35T78 60T94 103T137 121Q165 121 187 96T210 8Q210 -27 201 -60T180 -117T154 -158T130 -185T117 -194Q113 -194 104 -185T95 -172Q95 -168 106 -156T131 -126T157 -76T173 -3V9L172 8Q170 7 167 6T161 3T152 1T140 0Q113 0 96 17Z&quot; stroke-width=&quot;1&quot;&gt;&lt;/path&gt;&lt;/g&gt;&lt;g transform=&quot;translate(3990,0)&quot;&gt;&lt;path d=&quot;M462 0Q444 3 333 3Q217 3 199 0H190V46H221Q241 46 248 46T265 48T279 53T286 61Q287 63 287 115V165H28V211L179 442Q332 674 334 675Q336 677 355 677H373L379 671V211H471V165H379V114Q379 73 379 66T385 54Q393 47 442 46H471V0H462ZM293 211V545L74 212L183 211H293Z&quot; stroke-width=&quot;1&quot;&gt;&lt;/path&gt;&lt;/g&gt;&lt;g transform=&quot;translate(4491,0)&quot;&gt;&lt;path d=&quot;M78 35T78 60T94 103T137 121Q165 121 187 96T210 8Q210 -27 201 -60T180 -117T154 -158T130 -185T117 -194Q113 -194 104 -185T95 -172Q95 -168 106 -156T131 -126T157 -76T173 -3V9L172 8Q170 7 167 6T161 3T152 1T140 0Q113 0 96 17Z&quot; stroke-width=&quot;1&quot;&gt;&lt;/path&gt;&lt;/g&gt;&lt;g transform=&quot;translate(4936,0)&quot;&gt;&lt;path d=&quot;M213 578L200 573Q186 568 160 563T102 556H83V602H102Q149 604 189 617T245 641T273 663Q275 666 285 666Q294 666 302 660V361L303 61Q310 54 315 52T339 48T401 46H427V0H416Q395 3 257 3Q121 3 100 0H88V46H114Q136 46 152 46T177 47T193 50T201 52T207 57T213 61V578Z&quot; stroke-width=&quot;1&quot;&gt;&lt;/path&gt;&lt;path transform=&quot;translate(500,0)&quot; d=&quot;M42 313Q42 476 123 571T303 666Q372 666 402 630T432 550Q432 525 418 510T379 495Q356 495 341 509T326 548Q326 592 373 601Q351 623 311 626Q240 626 194 566Q147 500 147 364L148 360Q153 366 156 373Q197 433 263 433H267Q313 433 348 414Q372 400 396 374T435 317Q456 268 456 210V192Q456 169 451 149Q440 90 387 34T253 -22Q225 -22 199 -14T143 16T92 75T56 172T42 313ZM257 397Q227 397 205 380T171 335T154 278T148 216Q148 133 160 97T198 39Q222 21 251 21Q302 21 329 59Q342 77 347 104T352 209Q352 289 347 316T329 361Q302 397 257 397Z&quot; stroke-width=&quot;1&quot;&gt;&lt;/path&gt;&lt;/g&gt;&lt;g transform=&quot;translate(5937,0)&quot;&gt;&lt;path d=&quot;M78 35T78 60T94 103T137 121Q165 121 187 96T210 8Q210 -27 201 -60T180 -117T154 -158T130 -185T117 -194Q113 -194 104 -185T95 -172Q95 -168 106 -156T131 -126T157 -76T173 -3V9L172 8Q170 7 167 6T161 3T152 1T140 0Q113 0 96 17Z&quot; stroke-width=&quot;1&quot;&gt;&lt;/path&gt;&lt;/g&gt;&lt;g transform=&quot;translate(6382,0)&quot;&gt;&lt;path d=&quot;M42 313Q42 476 123 571T303 666Q372 666 402 630T432 550Q432 525 418 510T379 495Q356 495 341 509T326 548Q326 592 373 601Q351 623 311 626Q240 626 194 566Q147 500 147 364L148 360Q153 366 156 373Q197 433 263 433H267Q313 433 348 414Q372 400 396 374T435 317Q456 268 456 210V192Q456 169 451 149Q440 90 387 34T253 -22Q225 -22 199 -14T143 16T92 75T56 172T42 313ZM257 397Q227 397 205 380T171 335T154 278T148 216Q148 133 160 97T198 39Q222 21 251 21Q302 21 329 59Q342 77 347 104T352 209Q352 289 347 316T329 361Q302 397 257 397Z&quot; stroke-width=&quot;1&quot;&gt;&lt;/path&gt;&lt;path transform=&quot;translate(500,0)&quot; d=&quot;M462 0Q444 3 333 3Q217 3 199 0H190V46H221Q241 46 248 46T265 48T279 53T286 61Q287 63 287 115V165H28V211L179 442Q332 674 334 675Q336 677 355 677H373L379 671V211H471V165H379V114Q379 73 379 66T385 54Q393 47 442 46H471V0H462ZM293 211V545L74 212L183 211H293Z&quot; stroke-width=&quot;1&quot;&gt;&lt;/path&gt;&lt;/g&gt;&lt;g transform=&quot;translate(7383,0)&quot;&gt;&lt;path d=&quot;M22 710V750H159V-250H22V-210H119V710H22Z&quot; stroke-width=&quot;1&quot;&gt;&lt;/path&gt;&lt;/g&gt;&lt;/g&gt;&lt;/svg&gt;&lt;/span&gt;&amp;nbsp;&lt;span style=&quot;border: 0px; font-variant: inherit; font-stretch: inherit; line-height: normal; font-family: inherit; font-optical-sizing: inherit; font-kerning: inherit; font-feature-settings: inherit; font-variation-settings: inherit; margin: 0px; outline: 0px; padding: 0px; vertical-align: baseline; display: inline-block; word-spacing: normal; overflow-wrap: normal; float: none; direction: ltr; max-width: none; max-height: none; min-width: 0px; min-height: 0px;&quot; id=&quot;MathJax-Element-5-Frame&quot; class=&quot;MathJax_SVG&quot;&gt;&lt;svg role=&quot;img&quot; viewBox=&quot;0 -791.3 2286.1 936.9&quot; style=&quot;vertical-align: -0.338ex;&quot; height=&quot;2.176ex&quot; width=&quot;5.31ex&quot; xmlns:xlink=&quot;http://www.w3.org/1999/xlink&quot;&gt;&lt;g transform=&quot;matrix(1 0 0 -1 0 0)&quot; stroke-width=&quot;0&quot; fill=&quot;currentColor&quot; stroke=&quot;currentColor&quot;&gt;&lt;path d=&quot;M21 287Q22 290 23 295T28 317T38 348T53 381T73 411T99 433T132 442Q161 442 183 430T214 408T225 388Q227 382 228 382T236 389Q284 441 347 441H350Q398 441 422 400Q430 381 430 363Q430 333 417 315T391 292T366 288Q346 288 334 299T322 328Q322 376 378 392Q356 405 342 405Q286 405 239 331Q229 315 224 298T190 165Q156 25 151 16Q138 -11 108 -11Q95 -11 87 -5T76 7T74 17Q74 30 114 189T154 366Q154 405 128 405Q107 405 92 377T68 316T57 280Q55 278 41 278H27Q21 284 21 287Z&quot; stroke-width=&quot;1&quot;&gt;&lt;/path&gt;&lt;g transform=&quot;translate(729,0)&quot;&gt;&lt;path d=&quot;M56 347Q56 360 70 367H707Q722 359 722 347Q722 336 708 328L390 327H72Q56 332 56 347ZM56 153Q56 168 72 173H708Q722 163 722 153Q722 140 707 133H70Q56 140 56 153Z&quot; stroke-width=&quot;1&quot;&gt;&lt;/path&gt;&lt;/g&gt;&lt;g transform=&quot;translate(1785,0)&quot;&gt;&lt;path d=&quot;M462 0Q444 3 333 3Q217 3 199 0H190V46H221Q241 46 248 46T265 48T279 53T286 61Q287 63 287 115V165H28V211L179 442Q332 674 334 675Q336 677 355 677H373L379 671V211H471V165H379V114Q379 73 379 66T385 54Q393 47 442 46H471V0H462ZM293 211V545L74 212L183 211H293Z&quot; stroke-width=&quot;1&quot;&gt;&lt;/path&gt;&lt;/g&gt;&lt;/g&gt;&lt;/svg&gt;&lt;/span&gt;&lt;/p&gt;&lt;p style=&quot;border: 0px; font-style: inherit; font-variant: inherit; font-stretch: inherit; line-height: 2; font-family: var(--font-family-text); font-optical-sizing: inherit; font-kerning: inherit; font-feature-settings: inherit; font-variation-settings: inherit; font-size: 14px; margin: 5px 0px 0px; outline: 0px; padding: 0px; vertical-align: baseline; color: var(--color-text-dark-faded,#576871);&quot;&gt;There are&amp;nbsp;&lt;span style=&quot;border: 0px; font-variant: inherit; font-stretch: inherit; line-height: normal; font-family: inherit; font-optical-sizing: inherit; font-kerning: inherit; font-feature-settings: inherit; font-variation-settings: inherit; margin: 0px; outline: 0px; padding: 0px; vertical-align: baseline; display: inline-block; word-spacing: normal; overflow-wrap: normal; float: none; direction: ltr; max-width: none; max-height: none; min-width: 0px; min-height: 0px;&quot; id=&quot;MathJax-Element-6-Frame&quot; class=&quot;MathJax_SVG&quot;&gt;&lt;svg role=&quot;img&quot; viewBox=&quot;0 -863.1 3449.3 1223.9&quot; style=&quot;vertical-align: -0.838ex;&quot; height=&quot;2.843ex&quot; width=&quot;8.011ex&quot; xmlns:xlink=&quot;http://www.w3.org/1999/xlink&quot;&gt;&lt;g transform=&quot;matrix(1 0 0 -1 0 0)&quot; stroke-width=&quot;0&quot; fill=&quot;currentColor&quot; stroke=&quot;currentColor&quot;&gt;&lt;path d=&quot;M118 -250V750H255V710H158V-210H255V-250H118Z&quot; stroke-width=&quot;1&quot;&gt;&lt;/path&gt;&lt;g transform=&quot;translate(278,0)&quot;&gt;&lt;path d=&quot;M213 578L200 573Q186 568 160 563T102 556H83V602H102Q149 604 189 617T245 641T273 663Q275 666 285 666Q294 666 302 660V361L303 61Q310 54 315 52T339 48T401 46H427V0H416Q395 3 257 3Q121 3 100 0H88V46H114Q136 46 152 46T177 47T193 50T201 52T207 57T213 61V578Z&quot; stroke-width=&quot;1&quot;&gt;&lt;/path&gt;&lt;/g&gt;&lt;g transform=&quot;translate(779,0)&quot;&gt;&lt;path d=&quot;M78 35T78 60T94 103T137 121Q165 121 187 96T210 8Q210 -27 201 -60T180 -117T154 -158T130 -185T117 -194Q113 -194 104 -185T95 -172Q95 -168 106 -156T131 -126T157 -76T173 -3V9L172 8Q170 7 167 6T161 3T152 1T140 0Q113 0 96 17Z&quot; stroke-width=&quot;1&quot;&gt;&lt;/path&gt;&lt;/g&gt;&lt;g transform=&quot;translate(1224,0)&quot;&gt;&lt;path d=&quot;M462 0Q444 3 333 3Q217 3 199 0H190V46H221Q241 46 248 46T265 48T279 53T286 61Q287 63 287 115V165H28V211L179 442Q332 674 334 675Q336 677 355 677H373L379 671V211H471V165H379V114Q379 73 379 66T385 54Q393 47 442 46H471V0H462ZM293 211V545L74 212L183 211H293Z&quot; stroke-width=&quot;1&quot;&gt;&lt;/path&gt;&lt;/g&gt;&lt;g transform=&quot;translate(1724,0)&quot;&gt;&lt;path d=&quot;M78 35T78 60T94 103T137 121Q165 121 187 96T210 8Q210 -27 201 -60T180 -117T154 -158T130 -185T117 -194Q113 -194 104 -185T95 -172Q95 -168 106 -156T131 -126T157 -76T173 -3V9L172 8Q170 7 167 6T161 3T152 1T140 0Q113 0 96 17Z&quot; stroke-width=&quot;1&quot;&gt;&lt;/path&gt;&lt;/g&gt;&lt;g transform=&quot;translate(2169,0)&quot;&gt;&lt;path d=&quot;M213 578L200 573Q186 568 160 563T102 556H83V602H102Q149 604 189 617T245 641T273 663Q275 666 285 666Q294 666 302 660V361L303 61Q310 54 315 52T339 48T401 46H427V0H416Q395 3 257 3Q121 3 100 0H88V46H114Q136 46 152 46T177 47T193 50T201 52T207 57T213 61V578Z&quot; stroke-width=&quot;1&quot;&gt;&lt;/path&gt;&lt;path transform=&quot;translate(500,0)&quot; d=&quot;M42 313Q42 476 123 571T303 666Q372 666 402 630T432 550Q432 525 418 510T379 495Q356 495 341 509T326 548Q326 592 373 601Q351 623 311 626Q240 626 194 566Q147 500 147 364L148 360Q153 366 156 373Q197 433 263 433H267Q313 433 348 414Q372 400 396 374T435 317Q456 268 456 210V192Q456 169 451 149Q440 90 387 34T253 -22Q225 -22 199 -14T143 16T92 75T56 172T42 313ZM257 397Q227 397 205 380T171 335T154 278T148 216Q148 133 160 97T198 39Q222 21 251 21Q302 21 329 59Q342 77 347 104T352 209Q352 289 347 316T329 361Q302 397 257 397Z&quot; stroke-width=&quot;1&quot;&gt;&lt;/path&gt;&lt;/g&gt;&lt;g transform=&quot;translate(3170,0)&quot;&gt;&lt;path d=&quot;M22 710V750H159V-250H22V-210H119V710H22Z&quot; stroke-width=&quot;1&quot;&gt;&lt;/path&gt;&lt;/g&gt;&lt;/g&gt;&lt;/svg&gt;&lt;/span&gt;&amp;nbsp;and&amp;nbsp;&lt;span style=&quot;border: 0px; font-variant: inherit; font-stretch: inherit; line-height: normal; font-family: inherit; font-optical-sizing: inherit; font-kerning: inherit; font-feature-settings: inherit; font-variation-settings: inherit; margin: 0px; outline: 0px; padding: 0px; vertical-align: baseline; display: inline-block; word-spacing: normal; overflow-wrap: normal; float: none; direction: ltr; max-width: none; max-height: none; min-width: 0px; min-height: 0px;&quot; id=&quot;MathJax-Element-7-Frame&quot; class=&quot;MathJax_SVG&quot;&gt;&lt;svg role=&quot;img&quot; viewBox=&quot;0 -863.1 3949.8 1223.9&quot; style=&quot;vertical-align: -0.838ex;&quot; height=&quot;2.843ex&quot; width=&quot;9.174ex&quot; xmlns:xlink=&quot;http://www.w3.org/1999/xlink&quot;&gt;&lt;g transform=&quot;matrix(1 0 0 -1 0 0)&quot; stroke-width=&quot;0&quot; fill=&quot;currentColor&quot; stroke=&quot;currentColor&quot;&gt;&lt;path d=&quot;M118 -250V750H255V710H158V-210H255V-250H118Z&quot; stroke-width=&quot;1&quot;&gt;&lt;/path&gt;&lt;g transform=&quot;translate(278,0)&quot;&gt;&lt;path d=&quot;M462 0Q444 3 333 3Q217 3 199 0H190V46H221Q241 46 248 46T265 48T279 53T286 61Q287 63 287 115V165H28V211L179 442Q332 674 334 675Q336 677 355 677H373L379 671V211H471V165H379V114Q379 73 379 66T385 54Q393 47 442 46H471V0H462ZM293 211V545L74 212L183 211H293Z&quot; stroke-width=&quot;1&quot;&gt;&lt;/path&gt;&lt;/g&gt;&lt;g transform=&quot;translate(779,0)&quot;&gt;&lt;path d=&quot;M78 35T78 60T94 103T137 121Q165 121 187 96T210 8Q210 -27 201 -60T180 -117T154 -158T130 -185T117 -194Q113 -194 104 -185T95 -172Q95 -168 106 -156T131 -126T157 -76T173 -3V9L172 8Q170 7 167 6T161 3T152 1T140 0Q113 0 96 17Z&quot; stroke-width=&quot;1&quot;&gt;&lt;/path&gt;&lt;/g&gt;&lt;g transform=&quot;translate(1224,0)&quot;&gt;&lt;path d=&quot;M213 578L200 573Q186 568 160 563T102 556H83V602H102Q149 604 189 617T245 641T273 663Q275 666 285 666Q294 666 302 660V361L303 61Q310 54 315 52T339 48T401 46H427V0H416Q395 3 257 3Q121 3 100 0H88V46H114Q136 46 152 46T177 47T193 50T201 52T207 57T213 61V578Z&quot; stroke-width=&quot;1&quot;&gt;&lt;/path&gt;&lt;path transform=&quot;translate(500,0)&quot; d=&quot;M42 313Q42 476 123 571T303 666Q372 666 402 630T432 550Q432 525 418 510T379 495Q356 495 341 509T326 548Q326 592 373 601Q351 623 311 626Q240 626 194 566Q147 500 147 364L148 360Q153 366 156 373Q197 433 263 433H267Q313 433 348 414Q372 400 396 374T435 317Q456 268 456 210V192Q456 169 451 149Q440 90 387 34T253 -22Q225 -22 199 -14T143 16T92 75T56 172T42 313ZM257 397Q227 397 205 380T171 335T154 278T148 216Q148 133 160 97T198 39Q222 21 251 21Q302 21 329 59Q342 77 347 104T352 209Q352 289 347 316T329 361Q302 397 257 397Z&quot; stroke-width=&quot;1&quot;&gt;&lt;/path&gt;&lt;/g&gt;&lt;g transform=&quot;translate(2225,0)&quot;&gt;&lt;path d=&quot;M78 35T78 60T94 103T137 121Q165 121 187 96T210 8Q210 -27 201 -60T180 -117T154 -158T130 -185T117 -194Q113 -194 104 -185T95 -172Q95 -168 106 -156T131 -126T157 -76T173 -3V9L172 8Q170 7 167 6T161 3T152 1T140 0Q113 0 96 17Z&quot; stroke-width=&quot;1&quot;&gt;&lt;/path&gt;&lt;/g&gt;&lt;g transform=&quot;translate(2670,0)&quot;&gt;&lt;path d=&quot;M42 313Q42 476 123 571T303 666Q372 666 402 630T432 550Q432 525 418 510T379 495Q356 495 341 509T326 548Q326 592 373 601Q351 623 311 626Q240 626 194 566Q147 500 147 364L148 360Q153 366 156 373Q197 433 263 433H267Q313 433 348 414Q372 400 396 374T435 317Q456 268 456 210V192Q456 169 451 149Q440 90 387 34T253 -22Q225 -22 199 -14T143 16T92 75T56 172T42 313ZM257 397Q227 397 205 380T171 335T154 278T148 216Q148 133 160 97T198 39Q222 21 251 21Q302 21 329 59Q342 77 347 104T352 209Q352 289 347 316T329 361Q302 397 257 397Z&quot; stroke-width=&quot;1&quot;&gt;&lt;/path&gt;&lt;path transform=&quot;translate(500,0)&quot; d=&quot;M462 0Q444 3 333 3Q217 3 199 0H190V46H221Q241 46 248 46T265 48T279 53T286 61Q287 63 287 115V165H28V211L179 442Q332 674 334 675Q336 677 355 677H373L379 671V211H471V165H379V114Q379 73 379 66T385 54Q393 47 442 46H471V0H462ZM293 211V545L74 212L183 211H293Z&quot; stroke-width=&quot;1&quot;&gt;&lt;/path&gt;&lt;/g&gt;&lt;g transform=&quot;translate(3671,0)&quot;&gt;&lt;path d=&quot;M22 710V750H159V-250H22V-210H119V710H22Z&quot; stroke-width=&quot;1&quot;&gt;&lt;/path&gt;&lt;/g&gt;&lt;/g&gt;&lt;/svg&gt;&lt;/span&gt;&amp;nbsp;at indices&amp;nbsp;&lt;span style=&quot;border: 0px; font-variant: inherit; font-stretch: inherit; line-height: normal; font-family: inherit; font-optical-sizing: inherit; font-kerning: inherit; font-feature-settings: inherit; font-variation-settings: inherit; margin: 0px; outline: 0px; padding: 0px; vertical-align: baseline; display: inline-block; word-spacing: normal; overflow-wrap: normal; float: none; direction: ltr; max-width: none; max-height: none; min-width: 0px; min-height: 0px;&quot; id=&quot;MathJax-Element-8-Frame&quot; class=&quot;MathJax_SVG&quot;&gt;&lt;svg role=&quot;img&quot; viewBox=&quot;0 -863.1 3170.8 1223.9&quot; style=&quot;vertical-align: -0.838ex;&quot; height=&quot;2.843ex&quot; width=&quot;7.365ex&quot; xmlns:xlink=&quot;http://www.w3.org/1999/xlink&quot;&gt;&lt;g transform=&quot;matrix(1 0 0 -1 0 0)&quot; stroke-width=&quot;0&quot; fill=&quot;currentColor&quot; stroke=&quot;currentColor&quot;&gt;&lt;path d=&quot;M94 250Q94 319 104 381T127 488T164 576T202 643T244 695T277 729T302 750H315H319Q333 750 333 741Q333 738 316 720T275 667T226 581T184 443T167 250T184 58T225 -81T274 -167T316 -220T333 -241Q333 -250 318 -250H315H302L274 -226Q180 -141 137 -14T94 250Z&quot; stroke-width=&quot;1&quot;&gt;&lt;/path&gt;&lt;g transform=&quot;translate(389,0)&quot;&gt;&lt;path d=&quot;M96 585Q152 666 249 666Q297 666 345 640T423 548Q460 465 460 320Q460 165 417 83Q397 41 362 16T301 -15T250 -22Q224 -22 198 -16T137 16T82 83Q39 165 39 320Q39 494 96 585ZM321 597Q291 629 250 629Q208 629 178 597Q153 571 145 525T137 333Q137 175 145 125T181 46Q209 16 250 16Q290 16 318 46Q347 76 354 130T362 333Q362 478 354 524T321 597Z&quot; stroke-width=&quot;1&quot;&gt;&lt;/path&gt;&lt;/g&gt;&lt;g transform=&quot;translate(890,0)&quot;&gt;&lt;path d=&quot;M78 35T78 60T94 103T137 121Q165 121 187 96T210 8Q210 -27 201 -60T180 -117T154 -158T130 -185T117 -194Q113 -194 104 -185T95 -172Q95 -168 106 -156T131 -126T157 -76T173 -3V9L172 8Q170 7 167 6T161 3T152 1T140 0Q113 0 96 17Z&quot; stroke-width=&quot;1&quot;&gt;&lt;/path&gt;&lt;/g&gt;&lt;g transform=&quot;translate(1335,0)&quot;&gt;&lt;path d=&quot;M213 578L200 573Q186 568 160 563T102 556H83V602H102Q149 604 189 617T245 641T273 663Q275 666 285 666Q294 666 302 660V361L303 61Q310 54 315 52T339 48T401 46H427V0H416Q395 3 257 3Q121 3 100 0H88V46H114Q136 46 152 46T177 47T193 50T201 52T207 57T213 61V578Z&quot; stroke-width=&quot;1&quot;&gt;&lt;/path&gt;&lt;/g&gt;&lt;g transform=&quot;translate(1835,0)&quot;&gt;&lt;path d=&quot;M78 35T78 60T94 103T137 121Q165 121 187 96T210 8Q210 -27 201 -60T180 -117T154 -158T130 -185T117 -194Q113 -194 104 -185T95 -172Q95 -168 106 -156T131 -126T157 -76T173 -3V9L172 8Q170 7 167 6T161 3T152 1T140 0Q113 0 96 17Z&quot; stroke-width=&quot;1&quot;&gt;&lt;/path&gt;&lt;/g&gt;&lt;g transform=&quot;translate(2280,0)&quot;&gt;&lt;path d=&quot;M109 429Q82 429 66 447T50 491Q50 562 103 614T235 666Q326 666 387 610T449 465Q449 422 429 383T381 315T301 241Q265 210 201 149L142 93L218 92Q375 92 385 97Q392 99 409 186V189H449V186Q448 183 436 95T421 3V0H50V19V31Q50 38 56 46T86 81Q115 113 136 137Q145 147 170 174T204 211T233 244T261 278T284 308T305 340T320 369T333 401T340 431T343 464Q343 527 309 573T212 619Q179 619 154 602T119 569T109 550Q109 549 114 549Q132 549 151 535T170 489Q170 464 154 447T109 429Z&quot; stroke-width=&quot;1&quot;&gt;&lt;/path&gt;&lt;/g&gt;&lt;g transform=&quot;translate(2781,0)&quot;&gt;&lt;path d=&quot;M60 749L64 750Q69 750 74 750H86L114 726Q208 641 251 514T294 250Q294 182 284 119T261 12T224 -76T186 -143T145 -194T113 -227T90 -246Q87 -249 86 -250H74Q66 -250 63 -250T58 -247T55 -238Q56 -237 66 -225Q221 -64 221 250T66 725Q56 737 55 738Q55 746 60 749Z&quot; stroke-width=&quot;1&quot;&gt;&lt;/path&gt;&lt;/g&gt;&lt;/g&gt;&lt;/svg&gt;&lt;/span&gt;&amp;nbsp;and&amp;nbsp;&lt;span style=&quot;border: 0px; font-variant: inherit; font-stretch: inherit; line-height: normal; font-family: inherit; font-optical-sizing: inherit; font-kerning: inherit; font-feature-settings: inherit; font-variation-settings: inherit; margin: 0px; outline: 0px; padding: 0px; vertical-align: baseline; display: inline-block; word-spacing: normal; overflow-wrap: normal; float: none; direction: ltr; max-width: none; max-height: none; min-width: 0px; min-height: 0px;&quot; id=&quot;MathJax-Element-9-Frame&quot; class=&quot;MathJax_SVG&quot;&gt;&lt;svg role=&quot;img&quot; viewBox=&quot;0 -863.1 3170.8 1223.9&quot; style=&quot;vertical-align: -0.838ex;&quot; height=&quot;2.843ex&quot; width=&quot;7.365ex&quot; xmlns:xlink=&quot;http://www.w3.org/1999/xlink&quot;&gt;&lt;g transform=&quot;matrix(1 0 0 -1 0 0)&quot; stroke-width=&quot;0&quot; fill=&quot;currentColor&quot; stroke=&quot;currentColor&quot;&gt;&lt;path d=&quot;M94 250Q94 319 104 381T127 488T164 576T202 643T244 695T277 729T302 750H315H319Q333 750 333 741Q333 738 316 720T275 667T226 581T184 443T167 250T184 58T225 -81T274 -167T316 -220T333 -241Q333 -250 318 -250H315H302L274 -226Q180 -141 137 -14T94 250Z&quot; stroke-width=&quot;1&quot;&gt;&lt;/path&gt;&lt;g transform=&quot;translate(389,0)&quot;&gt;&lt;path d=&quot;M213 578L200 573Q186 568 160 563T102 556H83V602H102Q149 604 189 617T245 641T273 663Q275 666 285 666Q294 666 302 660V361L303 61Q310 54 315 52T339 48T401 46H427V0H416Q395 3 257 3Q121 3 100 0H88V46H114Q136 46 152 46T177 47T193 50T201 52T207 57T213 61V578Z&quot; stroke-width=&quot;1&quot;&gt;&lt;/path&gt;&lt;/g&gt;&lt;g transform=&quot;translate(890,0)&quot;&gt;&lt;path d=&quot;M78 35T78 60T94 103T137 121Q165 121 187 96T210 8Q210 -27 201 -60T180 -117T154 -158T130 -185T117 -194Q113 -194 104 -185T95 -172Q95 -168 106 -156T131 -126T157 -76T173 -3V9L172 8Q170 7 167 6T161 3T152 1T140 0Q113 0 96 17Z&quot; stroke-width=&quot;1&quot;&gt;&lt;/path&gt;&lt;/g&gt;&lt;g transform=&quot;translate(1335,0)&quot;&gt;&lt;path d=&quot;M109 429Q82 429 66 447T50 491Q50 562 103 614T235 666Q326 666 387 610T449 465Q449 422 429 383T381 315T301 241Q265 210 201 149L142 93L218 92Q375 92 385 97Q392 99 409 186V189H449V186Q448 183 436 95T421 3V0H50V19V31Q50 38 56 46T86 81Q115 113 136 137Q145 147 170 174T204 211T233 244T261 278T284 308T305 340T320 369T333 401T340 431T343 464Q343 527 309 573T212 619Q179 619 154 602T119 569T109 550Q109 549 114 549Q132 549 151 535T170 489Q170 464 154 447T109 429Z&quot; stroke-width=&quot;1&quot;&gt;&lt;/path&gt;&lt;/g&gt;&lt;g transform=&quot;translate(1835,0)&quot;&gt;&lt;path d=&quot;M78 35T78 60T94 103T137 121Q165 121 187 96T210 8Q210 -27 201 -60T180 -117T154 -158T130 -185T117 -194Q113 -194 104 -185T95 -172Q95 -168 106 -156T131 -126T157 -76T173 -3V9L172 8Q170 7 167 6T161 3T152 1T140 0Q113 0 96 17Z&quot; stroke-width=&quot;1&quot;&gt;&lt;/path&gt;&lt;/g&gt;&lt;g transform=&quot;translate(2280,0)&quot;&gt;&lt;path d=&quot;M127 463Q100 463 85 480T69 524Q69 579 117 622T233 665Q268 665 277 664Q351 652 390 611T430 522Q430 470 396 421T302 350L299 348Q299 347 308 345T337 336T375 315Q457 262 457 175Q457 96 395 37T238 -22Q158 -22 100 21T42 130Q42 158 60 175T105 193Q133 193 151 175T169 130Q169 119 166 110T159 94T148 82T136 74T126 70T118 67L114 66Q165 21 238 21Q293 21 321 74Q338 107 338 175V195Q338 290 274 322Q259 328 213 329L171 330L168 332Q166 335 166 348Q166 366 174 366Q202 366 232 371Q266 376 294 413T322 525V533Q322 590 287 612Q265 626 240 626Q208 626 181 615T143 592T132 580H135Q138 579 143 578T153 573T165 566T175 555T183 540T186 520Q186 498 172 481T127 463Z&quot; stroke-width=&quot;1&quot;&gt;&lt;/path&gt;&lt;/g&gt;&lt;g transform=&quot;translate(2781,0)&quot;&gt;&lt;path d=&quot;M60 749L64 750Q69 750 74 750H86L114 726Q208 641 251 514T294 250Q294 182 284 119T261 12T224 -76T186 -143T145 -194T113 -227T90 -246Q87 -249 86 -250H74Q66 -250 63 -250T58 -247T55 -238Q56 -237 66 -225Q221 -64 221 250T66 725Q56 737 55 738Q55 746 60 749Z&quot; stroke-width=&quot;1&quot;&gt;&lt;/path&gt;&lt;/g&gt;&lt;/g&gt;&lt;/svg&gt;&lt;/span&gt;. Return&amp;nbsp;&lt;span style=&quot;border: 0px; font-variant: inherit; font-stretch: inherit; line-height: normal; font-family: inherit; font-optical-sizing: inherit; font-kerning: inherit; font-feature-settings: inherit; font-variation-settings: inherit; margin: 0px; outline: 0px; padding: 0px; vertical-align: baseline; display: inline-block; word-spacing: normal; overflow-wrap: normal; float: none; direction: ltr; max-width: none; max-height: none; min-width: 0px; min-height: 0px;&quot; id=&quot;MathJax-Element-10-Frame&quot; class=&quot;MathJax_SVG&quot;&gt;&lt;svg role=&quot;img&quot; viewBox=&quot;0 -791.3 500.5 936.9&quot; style=&quot;vertical-align: -0.338ex;&quot; height=&quot;2.176ex&quot; width=&quot;1.162ex&quot; xmlns:xlink=&quot;http://www.w3.org/1999/xlink&quot;&gt;&lt;g transform=&quot;matrix(1 0 0 -1 0 0)&quot; stroke-width=&quot;0&quot; fill=&quot;currentColor&quot; stroke=&quot;currentColor&quot;&gt;&lt;path d=&quot;M109 429Q82 429 66 447T50 491Q50 562 103 614T235 666Q326 666 387 610T449 465Q449 422 429 383T381 315T301 241Q265 210 201 149L142 93L218 92Q375 92 385 97Q392 99 409 186V189H449V186Q448 183 436 95T421 3V0H50V19V31Q50 38 56 46T86 81Q115 113 136 137Q145 147 170 174T204 211T233 244T261 278T284 308T305 340T320 369T333 401T340 431T343 464Q343 527 309 573T212 619Q179 619 154 602T119 569T109 550Q109 549 114 549Q132 549 151 535T170 489Q170 464 154 447T109 429Z&quot; stroke-width=&quot;1&quot;&gt;&lt;/path&gt;&lt;/g&gt;&lt;/svg&gt;&lt;/span&gt;.&lt;/p&gt;&lt;p style=&quot;border: 0px; font-style: inherit; font-variant: inherit; font-stretch: inherit; line-height: 2; font-family: var(--font-family-text); font-optical-sizing: inherit; font-kerning: inherit; font-feature-settings: inherit; font-variation-settings: inherit; font-size: 14px; margin: 5px 0px 0px; outline: 0px; padding: 0px; vertical-align: baseline; color: var(--color-text-dark-faded,#576871);&quot;&gt;&lt;span style=&quot;border: 0px; font-style: inherit; font-variant: inherit; font-weight: bolder; font-stretch: inherit; line-height: inherit; font-family: inherit; font-optical-sizing: inherit; font-kerning: inherit; font-feature-settings: inherit; font-variation-settings: inherit; margin: 0px; outline: 0px; padding: 0px; vertical-align: baseline; color: var(--color-text-dark,#0e141e);&quot;&gt;Function Description&lt;/span&gt;&lt;/p&gt;&lt;p style=&quot;border: 0px; font-style: inherit; font-variant: inherit; font-stretch: inherit; line-height: 2; font-family: var(--font-family-text); font-optical-sizing: inherit; font-kerning: inherit; font-feature-settings: inherit; font-variation-settings: inherit; font-size: 14px; margin: 5px 0px 0px; outline: 0px; padding: 0px; vertical-align: baseline; color: var(--color-text-dark-faded,#576871);&quot;&gt;Complete the&amp;nbsp;&lt;span style=&quot;border: 0px; font-style: inherit; font-variant: inherit; font-weight: inherit; font-stretch: inherit; line-height: inherit; font-family: inherit; font-optical-sizing: inherit; font-kerning: inherit; font-feature-settings: inherit; font-variation-settings: inherit; margin: 0px; outline: 0px; padding: 0px; vertical-align: baseline;&quot;&gt;countTriplets&lt;/span&gt;&amp;nbsp;function in the editor below.&lt;/p&gt;&lt;p style=&quot;border: 0px; font-style: inherit; font-variant: inherit; font-stretch: inherit; line-height: 2; font-family: var(--font-family-text); font-optical-sizing: inherit; font-kerning: inherit; font-feature-settings: inherit; font-variation-settings: inherit; font-size: 14px; margin: 5px 0px 0px; outline: 0px; padding: 0px; vertical-align: baseline; color: var(--color-text-dark-faded,#576871);&quot;&gt;countTriplets has the following parameter(s):&lt;/p&gt;&lt;ul style=&quot;border: 0px; font-style: inherit; font-variant: inherit; font-weight: inherit; font-stretch: inherit; line-height: inherit; font-family: inherit; font-optical-sizing: inherit; font-kerning: inherit; font-feature-settings: inherit; font-variation-settings: inherit; margin: 0px 0px 0px 20px; outline: 0px; padding: 0px; vertical-align: baseline;&quot;&gt;&lt;li style=&quot;border: 0px; font-style: inherit; font-variant: inherit; font-weight: inherit; font-stretch: inherit; line-height: 2; font-family: inherit; font-optical-sizing: inherit; font-kerning: inherit; font-feature-settings: inherit; font-variation-settings: inherit; font-size: 14px; margin: 0px; outline: 0px; padding: 0px; vertical-align: baseline; color: var(--color-text-dark-faded,#576871);&quot;&gt;&lt;span style=&quot;border: 0px; font-style: inherit; font-variant: inherit; font-weight: inherit; font-stretch: inherit; line-height: inherit; font-family: inherit; font-optical-sizing: inherit; font-kerning: inherit; font-feature-settings: inherit; font-variation-settings: inherit; margin: 0px; outline: 0px; padding: 0px; vertical-align: baseline;&quot;&gt;int arr[n]:&lt;/span&gt;&amp;nbsp;an array of integers&lt;/li&gt;&lt;li style=&quot;border: 0px; font-style: inherit; font-variant: inherit; font-weight: inherit; font-stretch: inherit; line-height: 2; font-family: inherit; font-optical-sizing: inherit; font-kerning: inherit; font-feature-settings: inherit; font-variation-settings: inherit; font-size: 14px; margin: 0px; outline: 0px; padding: 0px; vertical-align: baseline; color: var(--color-text-dark-faded,#576871);&quot;&gt;&lt;span style=&quot;border: 0px; font-style: inherit; font-variant: inherit; font-weight: inherit; font-stretch: inherit; line-height: inherit; font-family: inherit; font-optical-sizing: inherit; font-kerning: inherit; font-feature-settings: inherit; font-variation-settings: inherit; margin: 0px; outline: 0px; padding: 0px; vertical-align: baseline;&quot;&gt;int r&lt;/span&gt;: the common ratio&lt;/li&gt;&lt;/ul&gt;&lt;p style=&quot;border: 0px; font-style: inherit; font-variant: inherit; font-stretch: inherit; line-height: 2; font-family: var(--font-family-text); font-optical-sizing: inherit; font-kerning: inherit; font-feature-settings: inherit; font-variation-settings: inherit; font-size: 14px; margin: 5px 0px 0px; outline: 0px; padding: 0px; vertical-align: baseline; color: var(--color-text-dark-faded,#576871);&quot;&gt;&lt;span style=&quot;border: 0px; font-style: inherit; font-variant: inherit; font-weight: bolder; font-stretch: inherit; line-height: inherit; font-family: inherit; font-optical-sizing: inherit; font-kerning: inherit; font-feature-settings: inherit; font-variation-settings: inherit; margin: 0px; outline: 0px; padding: 0px; vertical-align: baseline; color: var(--color-text-dark,#0e141e);&quot;&gt;Returns&lt;/span&gt;&lt;/p&gt;&lt;ul style=&quot;border: 0px; font-style: inherit; font-variant: inherit; font-weight: inherit; font-stretch: inherit; line-height: inherit; font-family: inherit; font-optical-sizing: inherit; font-kerning: inherit; font-feature-settings: inherit; font-variation-settings: inherit; margin: 0px 0px 0px 20px; outline: 0px; padding: 0px; vertical-align: baseline;&quot;&gt;&lt;li style=&quot;border: 0px; font-style: inherit; font-variant: inherit; font-weight: inherit; font-stretch: inherit; line-height: 2; font-family: inherit; font-optical-sizing: inherit; font-kerning: inherit; font-feature-settings: inherit; font-variation-settings: inherit; font-size: 14px; margin: 0px; outline: 0px; padding: 0px; vertical-align: baseline; color: var(--color-text-dark-faded,#576871);&quot;&gt;&lt;span style=&quot;border: 0px; font-style: inherit; font-variant: inherit; font-weight: inherit; font-stretch: inherit; line-height: inherit; font-family: inherit; font-optical-sizing: inherit; font-kerning: inherit; font-feature-settings: inherit; font-variation-settings: inherit; margin: 0px; outline: 0px; padding: 0px; vertical-align: baseline;&quot;&gt;int:&lt;/span&gt;&amp;nbsp;the number of triplets&lt;/li&gt;&lt;/ul&gt;&lt;/div&gt;&lt;/div&gt;&lt;/div&gt;&lt;div style=&quot;border: 0px; font-variant-numeric: inherit; font-variant-east-asian: inherit; font-stretch: inherit; line-height: inherit; font-family: OpenSans, Arial, Helvetica, sans-serif; font-optical-sizing: inherit; font-kerning: inherit; font-feature-settings: inherit; font-variation-settings: inherit; font-size: 16px; margin: 0px; outline: 0px; padding: 0px; vertical-align: baseline; color: rgb(14, 20, 30); text-align: start; background-color: rgb(255, 255, 255);&quot; class=&quot;challenge_input_format&quot;&gt;&lt;div style=&quot;border: 0px; font-style: inherit; font-variant: inherit; font-weight: inherit; font-stretch: inherit; line-height: inherit; font-family: inherit; font-optical-sizing: inherit; font-kerning: inherit; font-feature-settings: inherit; font-variation-settings: inherit; margin: 0px 0px 10px; outline: 0px; padding: 0px; vertical-align: baseline;&quot; class=&quot;msB challenge_input_format_title&quot;&gt;&lt;p style=&quot;border: 0px; font-style: inherit; font-variant: inherit; font-stretch: inherit; line-height: 2; font-family: var(--font-family-text); font-optical-sizing: inherit; font-kerning: inherit; font-feature-settings: inherit; font-variation-settings: inherit; font-size: 14px; margin: 5px 0px 0px; outline: 0px; padding: 0px; vertical-align: baseline; color: var(--color-text-dark-faded,#576871);&quot;&gt;&lt;span style=&quot;border: 0px; font-style: inherit; font-variant: inherit; font-weight: bolder; font-stretch: inherit; line-height: inherit; font-family: inherit; font-optical-sizing: inherit; font-kerning: inherit; font-feature-settings: inherit; font-variation-settings: inherit; margin: 0px; outline: 0px; padding: 0px; vertical-align: baseline; color: var(--color-text-dark,#0e141e);&quot;&gt;Input Format&lt;/span&gt;&lt;/p&gt;&lt;/div&gt;&lt;div style=&quot;border: 0px; font-style: inherit; font-variant: inherit; font-weight: inherit; font-stretch: inherit; line-height: inherit; font-family: inherit; font-optical-sizing: inherit; font-kerning: inherit; font-feature-settings: inherit; font-variation-settings: inherit; margin: 0px 0px 10px; outline: 0px; padding: 0px; vertical-align: baseline;&quot; class=&quot;msB challenge_input_format_body&quot;&gt;&lt;div style=&quot;border: 0px; font-style: inherit; font-variant: inherit; font-weight: inherit; font-stretch: inherit; line-height: inherit; font-family: inherit; font-optical-sizing: inherit; font-kerning: inherit; font-feature-settings: inherit; font-variation-settings: inherit; margin: 0px; outline: 0px; padding: 0px; vertical-align: baseline;&quot; class=&quot;hackdown-content&quot;&gt;&lt;p style=&quot;border: 0px; font-style: inherit; font-variant: inherit; font-stretch: inherit; line-height: 2; font-family: var(--font-family-text); font-optical-sizing: inherit; font-kerning: inherit; font-feature-settings: inherit; font-variation-settings: inherit; font-size: 14px; margin: 5px 0px 0px; outline: 0px; padding: 0px; vertical-align: baseline; color: var(--color-text-dark-faded,#576871);&quot;&gt;The first line contains two space-separated integers&amp;nbsp;&lt;span style=&quot;border: 0px; font-variant: inherit; font-stretch: inherit; line-height: normal; font-family: inherit; font-optical-sizing: inherit; font-kerning: inherit; font-feature-settings: inherit; font-variation-settings: inherit; margin: 0px; outline: 0px; padding: 0px; vertical-align: baseline; display: inline-block; word-spacing: normal; overflow-wrap: normal; float: none; direction: ltr; max-width: none; max-height: none; min-width: 0px; min-height: 0px;&quot; id=&quot;MathJax-Element-1-Frame&quot; class=&quot;MathJax_SVG&quot;&gt;&lt;svg role=&quot;img&quot; viewBox=&quot;0 -576.1 600.5 721.6&quot; style=&quot;vertical-align: -0.338ex;&quot; height=&quot;1.676ex&quot; width=&quot;1.395ex&quot; xmlns:xlink=&quot;http://www.w3.org/1999/xlink&quot;&gt;&lt;g transform=&quot;matrix(1 0 0 -1 0 0)&quot; stroke-width=&quot;0&quot; fill=&quot;currentColor&quot; stroke=&quot;currentColor&quot;&gt;&lt;path d=&quot;M21 287Q22 293 24 303T36 341T56 388T89 425T135 442Q171 442 195 424T225 390T231 369Q231 367 232 367L243 378Q304 442 382 442Q436 442 469 415T503 336T465 179T427 52Q427 26 444 26Q450 26 453 27Q482 32 505 65T540 145Q542 153 560 153Q580 153 580 145Q580 144 576 130Q568 101 554 73T508 17T439 -10Q392 -10 371 17T350 73Q350 92 386 193T423 345Q423 404 379 404H374Q288 404 229 303L222 291L189 157Q156 26 151 16Q138 -11 108 -11Q95 -11 87 -5T76 7T74 17Q74 30 112 180T152 343Q153 348 153 366Q153 405 129 405Q91 405 66 305Q60 285 60 284Q58 278 41 278H27Q21 284 21 287Z&quot; stroke-width=&quot;1&quot;&gt;&lt;/path&gt;&lt;/g&gt;&lt;/svg&gt;&lt;/span&gt;&amp;nbsp;and&amp;nbsp;&lt;span style=&quot;border: 0px; font-variant: inherit; font-stretch: inherit; line-height: normal; font-family: inherit; font-optical-sizing: inherit; font-kerning: inherit; font-feature-settings: inherit; font-variation-settings: inherit; margin: 0px; outline: 0px; padding: 0px; vertical-align: baseline; display: inline-block; word-spacing: normal; overflow-wrap: normal; float: none; direction: ltr; max-width: none; max-height: none; min-width: 0px; min-height: 0px;&quot; id=&quot;MathJax-Element-2-Frame&quot; class=&quot;MathJax_SVG&quot;&gt;&lt;svg role=&quot;img&quot; viewBox=&quot;0 -576.1 451.5 721.6&quot; style=&quot;vertical-align: -0.338ex;&quot; height=&quot;1.676ex&quot; width=&quot;1.049ex&quot; xmlns:xlink=&quot;http://www.w3.org/1999/xlink&quot;&gt;&lt;g transform=&quot;matrix(1 0 0 -1 0 0)&quot; stroke-width=&quot;0&quot; fill=&quot;currentColor&quot; stroke=&quot;currentColor&quot;&gt;&lt;path d=&quot;M21 287Q22 290 23 295T28 317T38 348T53 381T73 411T99 433T132 442Q161 442 183 430T214 408T225 388Q227 382 228 382T236 389Q284 441 347 441H350Q398 441 422 400Q430 381 430 363Q430 333 417 315T391 292T366 288Q346 288 334 299T322 328Q322 376 378 392Q356 405 342 405Q286 405 239 331Q229 315 224 298T190 165Q156 25 151 16Q138 -11 108 -11Q95 -11 87 -5T76 7T74 17Q74 30 114 189T154 366Q154 405 128 405Q107 405 92 377T68 316T57 280Q55 278 41 278H27Q21 284 21 287Z&quot; stroke-width=&quot;1&quot;&gt;&lt;/path&gt;&lt;/g&gt;&lt;/svg&gt;&lt;/span&gt;, the size of&amp;nbsp;&lt;span style=&quot;border: 0px; font-variant: inherit; font-stretch: inherit; line-height: normal; font-family: inherit; font-optical-sizing: inherit; font-kerning: inherit; font-feature-settings: inherit; font-variation-settings: inherit; margin: 0px; outline: 0px; padding: 0px; vertical-align: baseline; display: inline-block; word-spacing: normal; overflow-wrap: normal; float: none; direction: ltr; max-width: none; max-height: none; min-width: 0px; min-height: 0px;&quot; id=&quot;MathJax-Element-3-Frame&quot; class=&quot;MathJax_SVG&quot;&gt;&lt;svg role=&quot;img&quot; viewBox=&quot;0 -576.1 1432.5 721.6&quot; style=&quot;vertical-align: -0.338ex;&quot; height=&quot;1.676ex&quot; width=&quot;3.327ex&quot; xmlns:xlink=&quot;http://www.w3.org/1999/xlink&quot;&gt;&lt;g transform=&quot;matrix(1 0 0 -1 0 0)&quot; stroke-width=&quot;0&quot; fill=&quot;currentColor&quot; stroke=&quot;currentColor&quot;&gt;&lt;path d=&quot;M33 157Q33 258 109 349T280 441Q331 441 370 392Q386 422 416 422Q429 422 439 414T449 394Q449 381 412 234T374 68Q374 43 381 35T402 26Q411 27 422 35Q443 55 463 131Q469 151 473 152Q475 153 483 153H487Q506 153 506 144Q506 138 501 117T481 63T449 13Q436 0 417 -8Q409 -10 393 -10Q359 -10 336 5T306 36L300 51Q299 52 296 50Q294 48 292 46Q233 -10 172 -10Q117 -10 75 30T33 157ZM351 328Q351 334 346 350T323 385T277 405Q242 405 210 374T160 293Q131 214 119 129Q119 126 119 118T118 106Q118 61 136 44T179 26Q217 26 254 59T298 110Q300 114 325 217T351 328Z&quot; stroke-width=&quot;1&quot;&gt;&lt;/path&gt;&lt;g transform=&quot;translate(529,0)&quot;&gt;&lt;path d=&quot;M21 287Q22 290 23 295T28 317T38 348T53 381T73 411T99 433T132 442Q161 442 183 430T214 408T225 388Q227 382 228 382T236 389Q284 441 347 441H350Q398 441 422 400Q430 381 430 363Q430 333 417 315T391 292T366 288Q346 288 334 299T322 328Q322 376 378 392Q356 405 342 405Q286 405 239 331Q229 315 224 298T190 165Q156 25 151 16Q138 -11 108 -11Q95 -11 87 -5T76 7T74 17Q74 30 114 189T154 366Q154 405 128 405Q107 405 92 377T68 316T57 280Q55 278 41 278H27Q21 284 21 287Z&quot; stroke-width=&quot;1&quot;&gt;&lt;/path&gt;&lt;/g&gt;&lt;g transform=&quot;translate(981,0)&quot;&gt;&lt;path d=&quot;M21 287Q22 290 23 295T28 317T38 348T53 381T73 411T99 433T132 442Q161 442 183 430T214 408T225 388Q227 382 228 382T236 389Q284 441 347 441H350Q398 441 422 400Q430 381 430 363Q430 333 417 315T391 292T366 288Q346 288 334 299T322 328Q322 376 378 392Q356 405 342 405Q286 405 239 331Q229 315 224 298T190 165Q156 25 151 16Q138 -11 108 -11Q95 -11 87 -5T76 7T74 17Q74 30 114 189T154 366Q154 405 128 405Q107 405 92 377T68 316T57 280Q55 278 41 278H27Q21 284 21 287Z&quot; stroke-width=&quot;1&quot;&gt;&lt;/path&gt;&lt;/g&gt;&lt;/g&gt;&lt;/svg&gt;&lt;/span&gt;&amp;nbsp;and the common ratio.&lt;br&gt;The next line contains&amp;nbsp;&lt;span style=&quot;border: 0px; font-variant: inherit; font-stretch: inherit; line-height: normal; font-family: inherit; font-optical-sizing: inherit; font-kerning: inherit; font-feature-settings: inherit; font-variation-settings: inherit; margin: 0px; outline: 0px; padding: 0px; vertical-align: baseline; display: inline-block; word-spacing: normal; overflow-wrap: normal; float: none; direction: ltr; max-width: none; max-height: none; min-width: 0px; min-height: 0px;&quot; id=&quot;MathJax-Element-4-Frame&quot; class=&quot;MathJax_SVG&quot;&gt;&lt;svg role=&quot;img&quot; viewBox=&quot;0 -576.1 600.5 721.6&quot; style=&quot;vertical-align: -0.338ex;&quot; height=&quot;1.676ex&quot; width=&quot;1.395ex&quot; xmlns:xlink=&quot;http://www.w3.org/1999/xlink&quot;&gt;&lt;g transform=&quot;matrix(1 0 0 -1 0 0)&quot; stroke-width=&quot;0&quot; fill=&quot;currentColor&quot; stroke=&quot;currentColor&quot;&gt;&lt;path d=&quot;M21 287Q22 293 24 303T36 341T56 388T89 425T135 442Q171 442 195 424T225 390T231 369Q231 367 232 367L243 378Q304 442 382 442Q436 442 469 415T503 336T465 179T427 52Q427 26 444 26Q450 26 453 27Q482 32 505 65T540 145Q542 153 560 153Q580 153 580 145Q580 144 576 130Q568 101 554 73T508 17T439 -10Q392 -10 371 17T350 73Q350 92 386 193T423 345Q423 404 379 404H374Q288 404 229 303L222 291L189 157Q156 26 151 16Q138 -11 108 -11Q95 -11 87 -5T76 7T74 17Q74 30 112 180T152 343Q153 348 153 366Q153 405 129 405Q91 405 66 305Q60 285 60 284Q58 278 41 278H27Q21 284 21 287Z&quot; stroke-width=&quot;1&quot;&gt;&lt;/path&gt;&lt;/g&gt;&lt;/svg&gt;&lt;/span&gt;&amp;nbsp;space-seperated integers&amp;nbsp;&lt;span style=&quot;border: 0px; font-variant: inherit; font-stretch: inherit; line-height: normal; font-family: inherit; font-optical-sizing: inherit; font-kerning: inherit; font-feature-settings: inherit; font-variation-settings: inherit; margin: 0px; outline: 0px; padding: 0px; vertical-align: baseline; display: inline-block; word-spacing: normal; overflow-wrap: normal; float: none; direction: ltr; max-width: none; max-height: none; min-width: 0px; min-height: 0px;&quot; id=&quot;MathJax-Element-5-Frame&quot; class=&quot;MathJax_SVG&quot;&gt;&lt;svg role=&quot;img&quot; viewBox=&quot;0 -863.1 2335 1223.9&quot; style=&quot;vertical-align: -0.838ex;&quot; height=&quot;2.843ex&quot; width=&quot;5.423ex&quot; xmlns:xlink=&quot;http://www.w3.org/1999/xlink&quot;&gt;&lt;g transform=&quot;matrix(1 0 0 -1 0 0)&quot; stroke-width=&quot;0&quot; fill=&quot;currentColor&quot; stroke=&quot;currentColor&quot;&gt;&lt;path d=&quot;M33 157Q33 258 109 349T280 441Q331 441 370 392Q386 422 416 422Q429 422 439 414T449 394Q449 381 412 234T374 68Q374 43 381 35T402 26Q411 27 422 35Q443 55 463 131Q469 151 473 152Q475 153 483 153H487Q506 153 506 144Q506 138 501 117T481 63T449 13Q436 0 417 -8Q409 -10 393 -10Q359 -10 336 5T306 36L300 51Q299 52 296 50Q294 48 292 46Q233 -10 172 -10Q117 -10 75 30T33 157ZM351 328Q351 334 346 350T323 385T277 405Q242 405 210 374T160 293Q131 214 119 129Q119 126 119 118T118 106Q118 61 136 44T179 26Q217 26 254 59T298 110Q300 114 325 217T351 328Z&quot; stroke-width=&quot;1&quot;&gt;&lt;/path&gt;&lt;g transform=&quot;translate(529,0)&quot;&gt;&lt;path d=&quot;M21 287Q22 290 23 295T28 317T38 348T53 381T73 411T99 433T132 442Q161 442 183 430T214 408T225 388Q227 382 228 382T236 389Q284 441 347 441H350Q398 441 422 400Q430 381 430 363Q430 333 417 315T391 292T366 288Q346 288 334 299T322 328Q322 376 378 392Q356 405 342 405Q286 405 239 331Q229 315 224 298T190 165Q156 25 151 16Q138 -11 108 -11Q95 -11 87 -5T76 7T74 17Q74 30 114 189T154 366Q154 405 128 405Q107 405 92 377T68 316T57 280Q55 278 41 278H27Q21 284 21 287Z&quot; stroke-width=&quot;1&quot;&gt;&lt;/path&gt;&lt;/g&gt;&lt;g transform=&quot;translate(981,0)&quot;&gt;&lt;path d=&quot;M21 287Q22 290 23 295T28 317T38 348T53 381T73 411T99 433T132 442Q161 442 183 430T214 408T225 388Q227 382 228 382T236 389Q284 441 347 441H350Q398 441 422 400Q430 381 430 363Q430 333 417 315T391 292T366 288Q346 288 334 299T322 328Q322 376 378 392Q356 405 342 405Q286 405 239 331Q229 315 224 298T190 165Q156 25 151 16Q138 -11 108 -11Q95 -11 87 -5T76 7T74 17Q74 30 114 189T154 366Q154 405 128 405Q107 405 92 377T68 316T57 280Q55 278 41 278H27Q21 284 21 287Z&quot; stroke-width=&quot;1&quot;&gt;&lt;/path&gt;&lt;/g&gt;&lt;g transform=&quot;translate(1432,0)&quot;&gt;&lt;path d=&quot;M118 -250V750H255V710H158V-210H255V-250H118Z&quot; stroke-width=&quot;1&quot;&gt;&lt;/path&gt;&lt;/g&gt;&lt;g transform=&quot;translate(1711,0)&quot;&gt;&lt;path d=&quot;M184 600Q184 624 203 642T247 661Q265 661 277 649T290 619Q290 596 270 577T226 557Q211 557 198 567T184 600ZM21 287Q21 295 30 318T54 369T98 420T158 442Q197 442 223 419T250 357Q250 340 236 301T196 196T154 83Q149 61 149 51Q149 26 166 26Q175 26 185 29T208 43T235 78T260 137Q263 149 265 151T282 153Q302 153 302 143Q302 135 293 112T268 61T223 11T161 -11Q129 -11 102 10T74 74Q74 91 79 106T122 220Q160 321 166 341T173 380Q173 404 156 404H154Q124 404 99 371T61 287Q60 286 59 284T58 281T56 279T53 278T49 278T41 278H27Q21 284 21 287Z&quot; stroke-width=&quot;1&quot;&gt;&lt;/path&gt;&lt;/g&gt;&lt;g transform=&quot;translate(2056,0)&quot;&gt;&lt;path d=&quot;M22 710V750H159V-250H22V-210H119V710H22Z&quot; stroke-width=&quot;1&quot;&gt;&lt;/path&gt;&lt;/g&gt;&lt;/g&gt;&lt;/svg&gt;&lt;/span&gt;.&lt;/p&gt;&lt;/div&gt;&lt;/div&gt;&lt;/div&gt;&lt;div style=&quot;border: 0px; font-variant-numeric: inherit; font-variant-east-asian: inherit; font-stretch: inherit; line-height: inherit; font-family: OpenSans, Arial, Helvetica, sans-serif; font-optical-sizing: inherit; font-kerning: inherit; font-feature-settings: inherit; font-variation-settings: inherit; font-size: 16px; margin: 0px; outline: 0px; padding: 0px; vertical-align: baseline; color: rgb(14, 20, 30); text-align: start; background-color: rgb(255, 255, 255);&quot; class=&quot;challenge_constraints&quot;&gt;&lt;div style=&quot;border: 0px; font-style: inherit; font-variant: inherit; font-weight: inherit; font-stretch: inherit; line-height: inherit; font-family: inherit; font-optical-sizing: inherit; font-kerning: inherit; font-feature-settings: inherit; font-variation-settings: inherit; margin: 0px 0px 10px; outline: 0px; padding: 0px; vertical-align: baseline;&quot; class=&quot;msB challenge_constraints_title&quot;&gt;&lt;p style=&quot;border: 0px; font-style: inherit; font-variant: inherit; font-stretch: inherit; line-height: 2; font-family: var(--font-family-text); font-optical-sizing: inherit; font-kerning: inherit; font-feature-settings: inherit; font-variation-settings: inherit; font-size: 14px; margin: 5px 0px 0px; outline: 0px; padding: 0px; vertical-align: baseline; color: var(--color-text-dark-faded,#576871);&quot;&gt;&lt;span style=&quot;border: 0px; font-style: inherit; font-variant: inherit; font-weight: bolder; font-stretch: inherit; line-height: inherit; font-family: inherit; font-optical-sizing: inherit; font-kerning: inherit; font-feature-settings: inherit; font-variation-settings: inherit; margin: 0px; outline: 0px; padding: 0px; vertical-align: baseline; color: var(--color-text-dark,#0e141e);&quot;&gt;Constraints&lt;/span&gt;&lt;/p&gt;&lt;div&gt;&lt;span style=&quot;border: 0px; font-style: inherit; font-variant: inherit; font-weight: bolder; font-stretch: inherit; line-height: inherit; font-family: inherit; font-optical-sizing: inherit; font-kerning: inherit; font-feature-settings: inherit; font-variation-settings: inherit; margin: 0px; outline: 0px; padding: 0px; vertical-align: baseline; color: var(--color-text-dark,#0e141e);&quot;&gt;&lt;br&gt;&lt;/span&gt;&lt;/div&gt;&lt;/div&gt;&lt;div style=&quot;border: 0px; font-style: inherit; font-variant: inherit; font-weight: inherit; font-stretch: inherit; line-height: inherit; font-family: inherit; font-optical-sizing: inherit; font-kerning: inherit; font-feature-settings: inherit; font-variation-settings: inherit; margin: 0px 0px 10px; outline: 0px; padding: 0px; vertical-align: baseline;&quot; class=&quot;msB challenge_constraints_body&quot;&gt;&lt;div style=&quot;border: 0px; font-style: inherit; font-variant: inherit; font-weight: inherit; font-stretch: inherit; line-height: inherit; font-family: inherit; font-optical-sizing: inherit; font-kerning: inherit; font-feature-settings: inherit; font-variation-settings: inherit; margin: 0px; outline: 0px; padding: 0px; vertical-align: baseline;&quot; class=&quot;hackdown-content&quot;&gt;&lt;ul style=&quot;border: 0px; font-style: inherit; font-variant: inherit; font-weight: inherit; font-stretch: inherit; line-height: inherit; font-family: inherit; font-optical-sizing: inherit; font-kerning: inherit; font-feature-settings: inherit; font-variation-settings: inherit; margin: 0px 0px 0px 20px; outline: 0px; padding: 0px; vertical-align: baseline;&quot;&gt;&lt;li style=&quot;border: 0px; font-style: inherit; font-variant: inherit; font-weight: inherit; font-stretch: inherit; line-height: 2; font-family: inherit; font-optical-sizing: inherit; font-kerning: inherit; font-feature-settings: inherit; font-variation-settings: inherit; font-size: 14px; margin: 0px; outline: 0px; padding: 0px; vertical-align: baseline; color: var(--color-text-dark-faded,#576871);&quot;&gt;&lt;span style=&quot;border: 0px; font-variant: inherit; font-stretch: inherit; line-height: normal; font-family: inherit; font-optical-sizing: inherit; font-kerning: inherit; font-feature-settings: inherit; font-variation-settings: inherit; margin: 0px; outline: 0px; padding: 0px; vertical-align: baseline; display: inline-block; word-spacing: normal; overflow-wrap: normal; float: none; direction: ltr; max-width: none; max-height: none; min-width: 0px; min-height: 0px;&quot; id=&quot;MathJax-Element-1-Frame&quot; class=&quot;MathJax_SVG&quot;&gt;&lt;svg role=&quot;img&quot; viewBox=&quot;0 -1006.6 5224 1223.9&quot; style=&quot;vertical-align: -0.505ex;&quot; height=&quot;2.843ex&quot; width=&quot;12.133ex&quot; xmlns:xlink=&quot;http://www.w3.org/1999/xlink&quot;&gt;&lt;g transform=&quot;matrix(1 0 0 -1 0 0)&quot; stroke-width=&quot;0&quot; fill=&quot;currentColor&quot; stroke=&quot;currentColor&quot;&gt;&lt;path d=&quot;M213 578L200 573Q186 568 160 563T102 556H83V602H102Q149 604 189 617T245 641T273 663Q275 666 285 666Q294 666 302 660V361L303 61Q310 54 315 52T339 48T401 46H427V0H416Q395 3 257 3Q121 3 100 0H88V46H114Q136 46 152 46T177 47T193 50T201 52T207 57T213 61V578Z&quot; stroke-width=&quot;1&quot;&gt;&lt;/path&gt;&lt;g transform=&quot;translate(778,0)&quot;&gt;&lt;path d=&quot;M674 636Q682 636 688 630T694 615T687 601Q686 600 417 472L151 346L399 228Q687 92 691 87Q694 81 694 76Q694 58 676 56H670L382 192Q92 329 90 331Q83 336 83 348Q84 359 96 365Q104 369 382 500T665 634Q669 636 674 636ZM84 -118Q84 -108 99 -98H678Q694 -104 694 -118Q694 -130 679 -138H98Q84 -131 84 -118Z&quot; stroke-width=&quot;1&quot;&gt;&lt;/path&gt;&lt;/g&gt;&lt;g transform=&quot;translate(1834,0)&quot;&gt;&lt;path d=&quot;M21 287Q22 293 24 303T36 341T56 388T89 425T135 442Q171 442 195 424T225 390T231 369Q231 367 232 367L243 378Q304 442 382 442Q436 442 469 415T503 336T465 179T427 52Q427 26 444 26Q450 26 453 27Q482 32 505 65T540 145Q542 153 560 153Q580 153 580 145Q580 144 576 130Q568 101 554 73T508 17T439 -10Q392 -10 371 17T350 73Q350 92 386 193T423 345Q423 404 379 404H374Q288 404 229 303L222 291L189 157Q156 26 151 16Q138 -11 108 -11Q95 -11 87 -5T76 7T74 17Q74 30 112 180T152 343Q153 348 153 366Q153 405 129 405Q91 405 66 305Q60 285 60 284Q58 278 41 278H27Q21 284 21 287Z&quot; stroke-width=&quot;1&quot;&gt;&lt;/path&gt;&lt;/g&gt;&lt;g transform=&quot;translate(2712,0)&quot;&gt;&lt;path d=&quot;M674 636Q682 636 688 630T694 615T687 601Q686 600 417 472L151 346L399 228Q687 92 691 87Q694 81 694 76Q694 58 676 56H670L382 192Q92 329 90 331Q83 336 83 348Q84 359 96 365Q104 369 382 500T665 634Q669 636 674 636ZM84 -118Q84 -108 99 -98H678Q694 -104 694 -118Q694 -130 679 -138H98Q84 -131 84 -118Z&quot; stroke-width=&quot;1&quot;&gt;&lt;/path&gt;&lt;/g&gt;&lt;g transform=&quot;translate(3769,0)&quot;&gt;&lt;path d=&quot;M213 578L200 573Q186 568 160 563T102 556H83V602H102Q149 604 189 617T245 641T273 663Q275 666 285 666Q294 666 302 660V361L303 61Q310 54 315 52T339 48T401 46H427V0H416Q395 3 257 3Q121 3 100 0H88V46H114Q136 46 152 46T177 47T193 50T201 52T207 57T213 61V578Z&quot; stroke-width=&quot;1&quot;&gt;&lt;/path&gt;&lt;path transform=&quot;translate(500,0)&quot; d=&quot;M96 585Q152 666 249 666Q297 666 345 640T423 548Q460 465 460 320Q460 165 417 83Q397 41 362 16T301 -15T250 -22Q224 -22 198 -16T137 16T82 83Q39 165 39 320Q39 494 96 585ZM321 597Q291 629 250 629Q208 629 178 597Q153 571 145 525T137 333Q137 175 145 125T181 46Q209 16 250 16Q290 16 318 46Q347 76 354 130T362 333Q362 478 354 524T321 597Z&quot; stroke-width=&quot;1&quot;&gt;&lt;/path&gt;&lt;g transform=&quot;translate(1001,393)&quot;&gt;&lt;path d=&quot;M164 157Q164 133 148 117T109 101H102Q148 22 224 22Q294 22 326 82Q345 115 345 210Q345 313 318 349Q292 382 260 382H254Q176 382 136 314Q132 307 129 306T114 304Q97 304 95 310Q93 314 93 485V614Q93 664 98 664Q100 666 102 666Q103 666 123 658T178 642T253 634Q324 634 389 662Q397 666 402 666Q410 666 410 648V635Q328 538 205 538Q174 538 149 544L139 546V374Q158 388 169 396T205 412T256 420Q337 420 393 355T449 201Q449 109 385 44T229 -22Q148 -22 99 32T50 154Q50 178 61 192T84 210T107 214Q132 214 148 197T164 157Z&quot; transform=&quot;scale(0.707)&quot; stroke-width=&quot;1&quot;&gt;&lt;/path&gt;&lt;/g&gt;&lt;/g&gt;&lt;/g&gt;&lt;/svg&gt;&lt;/span&gt;&lt;/li&gt;&lt;li style=&quot;border: 0px; font-style: inherit; font-variant: inherit; font-weight: inherit; font-stretch: inherit; line-height: 2; font-family: inherit; font-optical-sizing: inherit; font-kerning: inherit; font-feature-settings: inherit; font-variation-settings: inherit; font-size: 14px; margin: 0px; outline: 0px; padding: 0px; vertical-align: baseline; color: var(--color-text-dark-faded,#576871);&quot;&gt;&lt;span style=&quot;border: 0px; font-variant: inherit; font-stretch: inherit; line-height: normal; font-family: inherit; font-optical-sizing: inherit; font-kerning: inherit; font-feature-settings: inherit; font-variation-settings: inherit; margin: 0px; outline: 0px; padding: 0px; vertical-align: baseline; display: inline-block; word-spacing: normal; overflow-wrap: normal; float: none; direction: ltr; max-width: none; max-height: none; min-width: 0px; min-height: 0px;&quot; id=&quot;MathJax-Element-2-Frame&quot; class=&quot;MathJax_SVG&quot;&gt;&lt;svg role=&quot;img&quot; viewBox=&quot;0 -1006.6 5075 1223.9&quot; style=&quot;vertical-align: -0.505ex;&quot; height=&quot;2.843ex&quot; width=&quot;11.787ex&quot; xmlns:xlink=&quot;http://www.w3.org/1999/xlink&quot;&gt;&lt;g transform=&quot;matrix(1 0 0 -1 0 0)&quot; stroke-width=&quot;0&quot; fill=&quot;currentColor&quot; stroke=&quot;currentColor&quot;&gt;&lt;path d=&quot;M213 578L200 573Q186 568 160 563T102 556H83V602H102Q149 604 189 617T245 641T273 663Q275 666 285 666Q294 666 302 660V361L303 61Q310 54 315 52T339 48T401 46H427V0H416Q395 3 257 3Q121 3 100 0H88V46H114Q136 46 152 46T177 47T193 50T201 52T207 57T213 61V578Z&quot; stroke-width=&quot;1&quot;&gt;&lt;/path&gt;&lt;g transform=&quot;translate(778,0)&quot;&gt;&lt;path d=&quot;M674 636Q682 636 688 630T694 615T687 601Q686 600 417 472L151 346L399 228Q687 92 691 87Q694 81 694 76Q694 58 676 56H670L382 192Q92 329 90 331Q83 336 83 348Q84 359 96 365Q104 369 382 500T665 634Q669 636 674 636ZM84 -118Q84 -108 99 -98H678Q694 -104 694 -118Q694 -130 679 -138H98Q84 -131 84 -118Z&quot; stroke-width=&quot;1&quot;&gt;&lt;/path&gt;&lt;/g&gt;&lt;g transform=&quot;translate(1834,0)&quot;&gt;&lt;path d=&quot;M21 287Q22 290 23 295T28 317T38 348T53 381T73 411T99 433T132 442Q161 442 183 430T214 408T225 388Q227 382 228 382T236 389Q284 441 347 441H350Q398 441 422 400Q430 381 430 363Q430 333 417 315T391 292T366 288Q346 288 334 299T322 328Q322 376 378 392Q356 405 342 405Q286 405 239 331Q229 315 224 298T190 165Q156 25 151 16Q138 -11 108 -11Q95 -11 87 -5T76 7T74 17Q74 30 114 189T154 366Q154 405 128 405Q107 405 92 377T68 316T57 280Q55 278 41 278H27Q21 284 21 287Z&quot; stroke-width=&quot;1&quot;&gt;&lt;/path&gt;&lt;/g&gt;&lt;g transform=&quot;translate(2563,0)&quot;&gt;&lt;path d=&quot;M674 636Q682 636 688 630T694 615T687 601Q686 600 417 472L151 346L399 228Q687 92 691 87Q694 81 694 76Q694 58 676 56H670L382 192Q92 329 90 331Q83 336 83 348Q84 359 96 365Q104 369 382 500T665 634Q669 636 674 636ZM84 -118Q84 -108 99 -98H678Q694 -104 694 -118Q694 -130 679 -138H98Q84 -131 84 -118Z&quot; stroke-width=&quot;1&quot;&gt;&lt;/path&gt;&lt;/g&gt;&lt;g transform=&quot;translate(3620,0)&quot;&gt;&lt;path d=&quot;M213 578L200 573Q186 568 160 563T102 556H83V602H102Q149 604 189 617T245 641T273 663Q275 666 285 666Q294 666 302 660V361L303 61Q310 54 315 52T339 48T401 46H427V0H416Q395 3 257 3Q121 3 100 0H88V46H114Q136 46 152 46T177 47T193 50T201 52T207 57T213 61V578Z&quot; stroke-width=&quot;1&quot;&gt;&lt;/path&gt;&lt;path transform=&quot;translate(500,0)&quot; d=&quot;M96 585Q152 666 249 666Q297 666 345 640T423 548Q460 465 460 320Q460 165 417 83Q397 41 362 16T301 -15T250 -22Q224 -22 198 -16T137 16T82 83Q39 165 39 320Q39 494 96 585ZM321 597Q291 629 250 629Q208 629 178 597Q153 571 145 525T137 333Q137 175 145 125T181 46Q209 16 250 16Q290 16 318 46Q347 76 354 130T362 333Q362 478 354 524T321 597Z&quot; stroke-width=&quot;1&quot;&gt;&lt;/path&gt;&lt;g transform=&quot;translate(1001,393)&quot;&gt;&lt;path d=&quot;M352 287Q304 211 232 211Q154 211 104 270T44 396Q42 412 42 436V444Q42 537 111 606Q171 666 243 666Q245 666 249 666T257 665H261Q273 665 286 663T323 651T370 619T413 560Q456 472 456 334Q456 194 396 97Q361 41 312 10T208 -22Q147 -22 108 7T68 93T121 149Q143 149 158 135T173 96Q173 78 164 65T148 49T135 44L131 43Q131 41 138 37T164 27T206 22H212Q272 22 313 86Q352 142 352 280V287ZM244 248Q292 248 321 297T351 430Q351 508 343 542Q341 552 337 562T323 588T293 615T246 625Q208 625 181 598Q160 576 154 546T147 441Q147 358 152 329T172 282Q197 248 244 248Z&quot; transform=&quot;scale(0.707)&quot; stroke-width=&quot;1&quot;&gt;&lt;/path&gt;&lt;/g&gt;&lt;/g&gt;&lt;/g&gt;&lt;/svg&gt;&lt;/span&gt;&lt;/li&gt;&lt;li style=&quot;border: 0px; font-style: inherit; font-variant: inherit; font-weight: inherit; font-stretch: inherit; line-height: 2; font-family: inherit; font-optical-sizing: inherit; font-kerning: inherit; font-feature-settings: inherit; font-variation-settings: inherit; font-size: 14px; margin: 0px; outline: 0px; padding: 0px; vertical-align: baseline; color: var(--color-text-dark-faded,#576871);&quot;&gt;&lt;span style=&quot;border: 0px; font-variant: inherit; font-stretch: inherit; line-height: normal; font-family: inherit; font-optical-sizing: inherit; font-kerning: inherit; font-feature-settings: inherit; font-variation-settings: inherit; margin: 0px; outline: 0px; padding: 0px; vertical-align: baseline; display: inline-block; word-spacing: normal; overflow-wrap: normal; float: none; direction: ltr; max-width: none; max-height: none; min-width: 0px; min-height: 0px;&quot; id=&quot;MathJax-Element-3-Frame&quot; class=&quot;MathJax_SVG&quot;&gt;&lt;svg role=&quot;img&quot; viewBox=&quot;0 -1006.6 6958.5 1367.4&quot; style=&quot;vertical-align: -0.838ex;&quot; height=&quot;3.176ex&quot; width=&quot;16.162ex&quot; xmlns:xlink=&quot;http://www.w3.org/1999/xlink&quot;&gt;&lt;g transform=&quot;matrix(1 0 0 -1 0 0)&quot; stroke-width=&quot;0&quot; fill=&quot;currentColor&quot; stroke=&quot;currentColor&quot;&gt;&lt;path d=&quot;M213 578L200 573Q186 568 160 563T102 556H83V602H102Q149 604 189 617T245 641T273 663Q275 666 285 666Q294 666 302 660V361L303 61Q310 54 315 52T339 48T401 46H427V0H416Q395 3 257 3Q121 3 100 0H88V46H114Q136 46 152 46T177 47T193 50T201 52T207 57T213 61V578Z&quot; stroke-width=&quot;1&quot;&gt;&lt;/path&gt;&lt;g transform=&quot;translate(778,0)&quot;&gt;&lt;path d=&quot;M674 636Q682 636 688 630T694 615T687 601Q686 600 417 472L151 346L399 228Q687 92 691 87Q694 81 694 76Q694 58 676 56H670L382 192Q92 329 90 331Q83 336 83 348Q84 359 96 365Q104 369 382 500T665 634Q669 636 674 636ZM84 -118Q84 -108 99 -98H678Q694 -104 694 -118Q694 -130 679 -138H98Q84 -131 84 -118Z&quot; stroke-width=&quot;1&quot;&gt;&lt;/path&gt;&lt;/g&gt;&lt;g transform=&quot;translate(1834,0)&quot;&gt;&lt;path d=&quot;M33 157Q33 258 109 349T280 441Q331 441 370 392Q386 422 416 422Q429 422 439 414T449 394Q449 381 412 234T374 68Q374 43 381 35T402 26Q411 27 422 35Q443 55 463 131Q469 151 473 152Q475 153 483 153H487Q506 153 506 144Q506 138 501 117T481 63T449 13Q436 0 417 -8Q409 -10 393 -10Q359 -10 336 5T306 36L300 51Q299 52 296 50Q294 48 292 46Q233 -10 172 -10Q117 -10 75 30T33 157ZM351 328Q351 334 346 350T323 385T277 405Q242 405 210 374T160 293Q131 214 119 129Q119 126 119 118T118 106Q118 61 136 44T179 26Q217 26 254 59T298 110Q300 114 325 217T351 328Z&quot; stroke-width=&quot;1&quot;&gt;&lt;/path&gt;&lt;/g&gt;&lt;g transform=&quot;translate(2364,0)&quot;&gt;&lt;path d=&quot;M21 287Q22 290 23 295T28 317T38 348T53 381T73 411T99 433T132 442Q161 442 183 430T214 408T225 388Q227 382 228 382T236 389Q284 441 347 441H350Q398 441 422 400Q430 381 430 363Q430 333 417 315T391 292T366 288Q346 288 334 299T322 328Q322 376 378 392Q356 405 342 405Q286 405 239 331Q229 315 224 298T190 165Q156 25 151 16Q138 -11 108 -11Q95 -11 87 -5T76 7T74 17Q74 30 114 189T154 366Q154 405 128 405Q107 405 92 377T68 316T57 280Q55 278 41 278H27Q21 284 21 287Z&quot; stroke-width=&quot;1&quot;&gt;&lt;/path&gt;&lt;/g&gt;&lt;g transform=&quot;translate(2815,0)&quot;&gt;&lt;path d=&quot;M21 287Q22 290 23 295T28 317T38 348T53 381T73 411T99 433T132 442Q161 442 183 430T214 408T225 388Q227 382 228 382T236 389Q284 441 347 441H350Q398 441 422 400Q430 381 430 363Q430 333 417 315T391 292T366 288Q346 288 334 299T322 328Q322 376 378 392Q356 405 342 405Q286 405 239 331Q229 315 224 298T190 165Q156 25 151 16Q138 -11 108 -11Q95 -11 87 -5T76 7T74 17Q74 30 114 189T154 366Q154 405 128 405Q107 405 92 377T68 316T57 280Q55 278 41 278H27Q21 284 21 287Z&quot; stroke-width=&quot;1&quot;&gt;&lt;/path&gt;&lt;/g&gt;&lt;g transform=&quot;translate(3267,0)&quot;&gt;&lt;path d=&quot;M118 -250V750H255V710H158V-210H255V-250H118Z&quot; stroke-width=&quot;1&quot;&gt;&lt;/path&gt;&lt;/g&gt;&lt;g transform=&quot;translate(3545,0)&quot;&gt;&lt;path d=&quot;M184 600Q184 624 203 642T247 661Q265 661 277 649T290 619Q290 596 270 577T226 557Q211 557 198 567T184 600ZM21 287Q21 295 30 318T54 369T98 420T158 442Q197 442 223 419T250 357Q250 340 236 301T196 196T154 83Q149 61 149 51Q149 26 166 26Q175 26 185 29T208 43T235 78T260 137Q263 149 265 151T282 153Q302 153 302 143Q302 135 293 112T268 61T223 11T161 -11Q129 -11 102 10T74 74Q74 91 79 106T122 220Q160 321 166 341T173 380Q173 404 156 404H154Q124 404 99 371T61 287Q60 286 59 284T58 281T56 279T53 278T49 278T41 278H27Q21 284 21 287Z&quot; stroke-width=&quot;1&quot;&gt;&lt;/path&gt;&lt;/g&gt;&lt;g transform=&quot;translate(3891,0)&quot;&gt;&lt;path d=&quot;M22 710V750H159V-250H22V-210H119V710H22Z&quot; stroke-width=&quot;1&quot;&gt;&lt;/path&gt;&lt;/g&gt;&lt;g transform=&quot;translate(4447,0)&quot;&gt;&lt;path d=&quot;M674 636Q682 636 688 630T694 615T687 601Q686 600 417 472L151 346L399 228Q687 92 691 87Q694 81 694 76Q694 58 676 56H670L382 192Q92 329 90 331Q83 336 83 348Q84 359 96 365Q104 369 382 500T665 634Q669 636 674 636ZM84 -118Q84 -108 99 -98H678Q694 -104 694 -118Q694 -130 679 -138H98Q84 -131 84 -118Z&quot; stroke-width=&quot;1&quot;&gt;&lt;/path&gt;&lt;/g&gt;&lt;g transform=&quot;translate(5503,0)&quot;&gt;&lt;path d=&quot;M213 578L200 573Q186 568 160 563T102 556H83V602H102Q149 604 189 617T245 641T273 663Q275 666 285 666Q294 666 302 660V361L303 61Q310 54 315 52T339 48T401 46H427V0H416Q395 3 257 3Q121 3 100 0H88V46H114Q136 46 152 46T177 47T193 50T201 52T207 57T213 61V578Z&quot; stroke-width=&quot;1&quot;&gt;&lt;/path&gt;&lt;path transform=&quot;translate(500,0)&quot; d=&quot;M96 585Q152 666 249 666Q297 666 345 640T423 548Q460 465 460 320Q460 165 417 83Q397 41 362 16T301 -15T250 -22Q224 -22 198 -16T137 16T82 83Q39 165 39 320Q39 494 96 585ZM321 597Q291 629 250 629Q208 629 178 597Q153 571 145 525T137 333Q137 175 145 125T181 46Q209 16 250 16Q290 16 318 46Q347 76 354 130T362 333Q362 478 354 524T321 597Z&quot; stroke-width=&quot;1&quot;&gt;&lt;/path&gt;&lt;g transform=&quot;translate(1001,393)&quot;&gt;&lt;path d=&quot;M352 287Q304 211 232 211Q154 211 104 270T44 396Q42 412 42 436V444Q42 537 111 606Q171 666 243 666Q245 666 249 666T257 665H261Q273 665 286 663T323 651T370 619T413 560Q456 472 456 334Q456 194 396 97Q361 41 312 10T208 -22Q147 -22 108 7T68 93T121 149Q143 149 158 135T173 96Q173 78 164 65T148 49T135 44L131 43Q131 41 138 37T164 27T206 22H212Q272 22 313 86Q352 142 352 280V287ZM244 248Q292 248 321 297T351 430Q351 508 343 542Q341 552 337 562T323 588T293 615T246 625Q208 625 181 598Q160 576 154 546T147 441Q147 358 152 329T172 282Q197 248 244 248Z&quot; transform=&quot;scale(0.707)&quot; stroke-width=&quot;1&quot;&gt;&lt;/path&gt;&lt;/g&gt;&lt;/g&gt;&lt;/g&gt;&lt;/svg&gt;&lt;/span&gt;&lt;/li&gt;&lt;/ul&gt;&lt;/div&gt;&lt;/div&gt;&lt;/div&gt;&lt;div style=&quot;border: 0px; font-variant-numeric: inherit; font-variant-east-asian: inherit; font-stretch: inherit; line-height: inherit; font-family: OpenSans, Arial, Helvetica, sans-serif; font-optical-sizing: inherit; font-kerning: inherit; font-feature-settings: inherit; font-variation-settings: inherit; font-size: 16px; margin: 0px; outline: 0px; padding: 0px; vertical-align: baseline; color: rgb(14, 20, 30); text-align: start; background-color: rgb(255, 255, 255);&quot; class=&quot;challenge_sample_input&quot;&gt;&lt;div style=&quot;border: 0px; font-style: inherit; font-variant: inherit; font-weight: inherit; font-stretch: inherit; line-height: inherit; font-family: inherit; font-optical-sizing: inherit; font-kerning: inherit; font-feature-settings: inherit; font-variation-settings: inherit; margin: 0px 0px 10px; outline: 0px; padding: 0px; vertical-align: baseline;&quot; class=&quot;msB challenge_sample_input_title&quot;&gt;&lt;/div&gt;&lt;/div&gt;" style="text;html=1;align=center;verticalAlign=middle;resizable=0;points=[];autosize=1;strokeColor=none;fillColor=none;" parent="1" vertex="1">
          <mxGeometry x="-790" y="-810" width="1220" height="620" as="geometry" />
        </mxCell>
        <mxCell id="MxvVfjlIRxyCvqryUWun-6" value="&lt;h1&gt;&lt;font style=&quot;font-size: 20px;&quot;&gt;Substructure:&lt;/font&gt;&lt;/h1&gt;&lt;p style=&quot;font-size: 16px;&quot;&gt;&lt;font style=&quot;font-size: 16px;&quot;&gt;Compute twins first&lt;br&gt;&lt;/font&gt;&lt;font style=&quot;font-size: 16px;&quot;&gt;2 connected twins = 1 Triplet&lt;/font&gt;&lt;/p&gt;&lt;p style=&quot;font-size: 16px;&quot;&gt;Twins -&amp;gt; E1, E2 -&amp;gt; E1i -&amp;gt; E2i, E1v*r = E2v&lt;/p&gt;&lt;p style=&quot;font-size: 16px;&quot;&gt;&lt;br&gt;&lt;/p&gt;&lt;h1&gt;&lt;font style=&quot;font-size: 20px;&quot;&gt;Complexity&lt;/font&gt;&lt;/h1&gt;&lt;div style=&quot;font-size: 16px;&quot;&gt;Building data structure (O(n))&lt;/div&gt;&lt;div style=&quot;font-size: 16px;&quot;&gt;&lt;br&gt;&lt;/div&gt;&lt;div&gt;&lt;font style=&quot;font-size: 20px;&quot;&gt;&lt;br&gt;&lt;/font&gt;&lt;/div&gt;" style="text;html=1;strokeColor=none;fillColor=none;align=left;verticalAlign=middle;whiteSpace=wrap;rounded=0;" parent="1" vertex="1">
          <mxGeometry x="-780" y="-190" width="730" height="310" as="geometry" />
        </mxCell>
        <mxCell id="MxvVfjlIRxyCvqryUWun-64" value="&lt;h1&gt;&lt;font style=&quot;font-size: 20px;&quot;&gt;Method 1:&lt;/font&gt;&lt;/h1&gt;&lt;p style=&quot;font-size: 16px;&quot;&gt;1. Separate into Progressions (k, l, m ...)&lt;/p&gt;&lt;p style=&quot;font-size: 16px;&quot;&gt;2. Count occurrences of each number from each progression&amp;nbsp;&lt;/p&gt;&lt;p style=&quot;font-size: 16px;&quot;&gt;&amp;nbsp;k: C(k1), C(k2), ... C(kn)&lt;/p&gt;&lt;p style=&quot;font-size: 16px;&quot;&gt;&amp;nbsp;l: C(l1), C(l2), ... C(ln)&lt;/p&gt;&lt;p style=&quot;font-size: 16px;&quot;&gt;3. Per element in original array:&lt;/p&gt;&lt;p style=&quot;font-size: 16px;&quot;&gt;go to corresponding progression -&amp;gt; find i (from ki to kn)&lt;/p&gt;&lt;p style=&quot;font-size: 16px;&quot;&gt;Calculate combinations (using counts from ki+1 to kn)&lt;/p&gt;&lt;p style=&quot;font-size: 16px;&quot;&gt;&lt;span style=&quot;background-color: initial;&quot;&gt;Subtract element from counts&lt;/span&gt;&lt;br&gt;&lt;/p&gt;&lt;h1&gt;&lt;font style=&quot;font-size: 20px;&quot;&gt;Complexity&lt;/font&gt;&lt;/h1&gt;&lt;div style=&quot;font-size: 16px;&quot;&gt;Building data structure (O(n))&lt;/div&gt;&lt;div style=&quot;font-size: 16px;&quot;&gt;Count Occurrences: O(n)&lt;/div&gt;&lt;div style=&quot;font-size: 16px;&quot;&gt;Traverse and count O(n) * len(counts) + O(n) * len(counts)&lt;/div&gt;&lt;div style=&quot;font-size: 16px;&quot;&gt;&lt;br&gt;&lt;/div&gt;&lt;div style=&quot;font-size: 16px;&quot;&gt;&lt;br&gt;&lt;/div&gt;&lt;div style=&quot;font-size: 16px;&quot;&gt;&lt;br&gt;&lt;/div&gt;&lt;div&gt;&lt;font style=&quot;font-size: 20px;&quot;&gt;&lt;br&gt;&lt;/font&gt;&lt;/div&gt;" style="text;html=1;strokeColor=none;fillColor=none;align=left;verticalAlign=middle;whiteSpace=wrap;rounded=0;" parent="1" vertex="1">
          <mxGeometry x="-2110" y="110" width="730" height="480" as="geometry" />
        </mxCell>
        <mxCell id="MxvVfjlIRxyCvqryUWun-7" value="" style="shape=table;startSize=0;container=1;collapsible=0;childLayout=tableLayout;" parent="1" vertex="1">
          <mxGeometry x="-1880" y="620" width="720" height="120" as="geometry" />
        </mxCell>
        <mxCell id="MxvVfjlIRxyCvqryUWun-8" value="" style="shape=tableRow;horizontal=0;startSize=0;swimlaneHead=0;swimlaneBody=0;strokeColor=inherit;top=0;left=0;bottom=0;right=0;collapsible=0;dropTarget=0;fillColor=none;points=[[0,0.5],[1,0.5]];portConstraint=eastwest;" parent="MxvVfjlIRxyCvqryUWun-7" vertex="1">
          <mxGeometry width="720" height="40" as="geometry" />
        </mxCell>
        <mxCell id="MxvVfjlIRxyCvqryUWun-9" value="k1" style="shape=partialRectangle;html=1;whiteSpace=wrap;connectable=0;strokeColor=inherit;overflow=hidden;fillColor=none;top=0;left=0;bottom=0;right=0;pointerEvents=1;" parent="MxvVfjlIRxyCvqryUWun-8" vertex="1">
          <mxGeometry width="60" height="40" as="geometry">
            <mxRectangle width="60" height="40" as="alternateBounds" />
          </mxGeometry>
        </mxCell>
        <mxCell id="MxvVfjlIRxyCvqryUWun-10" value="k1" style="shape=partialRectangle;html=1;whiteSpace=wrap;connectable=0;strokeColor=inherit;overflow=hidden;fillColor=none;top=0;left=0;bottom=0;right=0;pointerEvents=1;" parent="MxvVfjlIRxyCvqryUWun-8" vertex="1">
          <mxGeometry x="60" width="60" height="40" as="geometry">
            <mxRectangle width="60" height="40" as="alternateBounds" />
          </mxGeometry>
        </mxCell>
        <mxCell id="MxvVfjlIRxyCvqryUWun-11" value="k2" style="shape=partialRectangle;html=1;whiteSpace=wrap;connectable=0;strokeColor=inherit;overflow=hidden;fillColor=none;top=0;left=0;bottom=0;right=0;pointerEvents=1;" parent="MxvVfjlIRxyCvqryUWun-8" vertex="1">
          <mxGeometry x="120" width="60" height="40" as="geometry">
            <mxRectangle width="60" height="40" as="alternateBounds" />
          </mxGeometry>
        </mxCell>
        <mxCell id="MxvVfjlIRxyCvqryUWun-12" value="k2" style="shape=partialRectangle;html=1;whiteSpace=wrap;connectable=0;strokeColor=inherit;overflow=hidden;fillColor=none;top=0;left=0;bottom=0;right=0;pointerEvents=1;" parent="MxvVfjlIRxyCvqryUWun-8" vertex="1">
          <mxGeometry x="180" width="60" height="40" as="geometry">
            <mxRectangle width="60" height="40" as="alternateBounds" />
          </mxGeometry>
        </mxCell>
        <mxCell id="MxvVfjlIRxyCvqryUWun-13" value="k1" style="shape=partialRectangle;html=1;whiteSpace=wrap;connectable=0;strokeColor=inherit;overflow=hidden;fillColor=none;top=0;left=0;bottom=0;right=0;pointerEvents=1;" parent="MxvVfjlIRxyCvqryUWun-8" vertex="1">
          <mxGeometry x="240" width="60" height="40" as="geometry">
            <mxRectangle width="60" height="40" as="alternateBounds" />
          </mxGeometry>
        </mxCell>
        <mxCell id="MxvVfjlIRxyCvqryUWun-14" value="k3" style="shape=partialRectangle;html=1;whiteSpace=wrap;connectable=0;strokeColor=inherit;overflow=hidden;fillColor=none;top=0;left=0;bottom=0;right=0;pointerEvents=1;" parent="MxvVfjlIRxyCvqryUWun-8" vertex="1">
          <mxGeometry x="300" width="60" height="40" as="geometry">
            <mxRectangle width="60" height="40" as="alternateBounds" />
          </mxGeometry>
        </mxCell>
        <mxCell id="MxvVfjlIRxyCvqryUWun-15" value="k2" style="shape=partialRectangle;html=1;whiteSpace=wrap;connectable=0;strokeColor=inherit;overflow=hidden;fillColor=none;top=0;left=0;bottom=0;right=0;pointerEvents=1;" parent="MxvVfjlIRxyCvqryUWun-8" vertex="1">
          <mxGeometry x="360" width="60" height="40" as="geometry">
            <mxRectangle width="60" height="40" as="alternateBounds" />
          </mxGeometry>
        </mxCell>
        <mxCell id="MxvVfjlIRxyCvqryUWun-16" value="k2" style="shape=partialRectangle;html=1;whiteSpace=wrap;connectable=0;strokeColor=inherit;overflow=hidden;fillColor=none;top=0;left=0;bottom=0;right=0;pointerEvents=1;" parent="MxvVfjlIRxyCvqryUWun-8" vertex="1">
          <mxGeometry x="420" width="60" height="40" as="geometry">
            <mxRectangle width="60" height="40" as="alternateBounds" />
          </mxGeometry>
        </mxCell>
        <mxCell id="MxvVfjlIRxyCvqryUWun-17" value="" style="shape=partialRectangle;html=1;whiteSpace=wrap;connectable=0;strokeColor=inherit;overflow=hidden;fillColor=none;top=0;left=0;bottom=0;right=0;pointerEvents=1;" parent="MxvVfjlIRxyCvqryUWun-8" vertex="1">
          <mxGeometry x="480" width="60" height="40" as="geometry">
            <mxRectangle width="60" height="40" as="alternateBounds" />
          </mxGeometry>
        </mxCell>
        <mxCell id="MxvVfjlIRxyCvqryUWun-18" value="" style="shape=partialRectangle;html=1;whiteSpace=wrap;connectable=0;strokeColor=inherit;overflow=hidden;fillColor=none;top=0;left=0;bottom=0;right=0;pointerEvents=1;" parent="MxvVfjlIRxyCvqryUWun-8" vertex="1">
          <mxGeometry x="540" width="60" height="40" as="geometry">
            <mxRectangle width="60" height="40" as="alternateBounds" />
          </mxGeometry>
        </mxCell>
        <mxCell id="MxvVfjlIRxyCvqryUWun-19" value="" style="shape=partialRectangle;html=1;whiteSpace=wrap;connectable=0;strokeColor=inherit;overflow=hidden;fillColor=none;top=0;left=0;bottom=0;right=0;pointerEvents=1;" parent="MxvVfjlIRxyCvqryUWun-8" vertex="1">
          <mxGeometry x="600" width="60" height="40" as="geometry">
            <mxRectangle width="60" height="40" as="alternateBounds" />
          </mxGeometry>
        </mxCell>
        <mxCell id="MxvVfjlIRxyCvqryUWun-20" value="kx" style="shape=partialRectangle;html=1;whiteSpace=wrap;connectable=0;strokeColor=inherit;overflow=hidden;fillColor=none;top=0;left=0;bottom=0;right=0;pointerEvents=1;" parent="MxvVfjlIRxyCvqryUWun-8" vertex="1">
          <mxGeometry x="660" width="60" height="40" as="geometry">
            <mxRectangle width="60" height="40" as="alternateBounds" />
          </mxGeometry>
        </mxCell>
        <mxCell id="MxvVfjlIRxyCvqryUWun-21" value="" style="shape=tableRow;horizontal=0;startSize=0;swimlaneHead=0;swimlaneBody=0;strokeColor=inherit;top=0;left=0;bottom=0;right=0;collapsible=0;dropTarget=0;fillColor=none;points=[[0,0.5],[1,0.5]];portConstraint=eastwest;" parent="MxvVfjlIRxyCvqryUWun-7" vertex="1">
          <mxGeometry y="40" width="720" height="40" as="geometry" />
        </mxCell>
        <mxCell id="MxvVfjlIRxyCvqryUWun-22" value="l1" style="shape=partialRectangle;html=1;whiteSpace=wrap;connectable=0;strokeColor=inherit;overflow=hidden;fillColor=none;top=0;left=0;bottom=0;right=0;pointerEvents=1;" parent="MxvVfjlIRxyCvqryUWun-21" vertex="1">
          <mxGeometry width="60" height="40" as="geometry">
            <mxRectangle width="60" height="40" as="alternateBounds" />
          </mxGeometry>
        </mxCell>
        <mxCell id="MxvVfjlIRxyCvqryUWun-23" value="" style="shape=partialRectangle;html=1;whiteSpace=wrap;connectable=0;strokeColor=inherit;overflow=hidden;fillColor=none;top=0;left=0;bottom=0;right=0;pointerEvents=1;" parent="MxvVfjlIRxyCvqryUWun-21" vertex="1">
          <mxGeometry x="60" width="60" height="40" as="geometry">
            <mxRectangle width="60" height="40" as="alternateBounds" />
          </mxGeometry>
        </mxCell>
        <mxCell id="MxvVfjlIRxyCvqryUWun-24" value="" style="shape=partialRectangle;html=1;whiteSpace=wrap;connectable=0;strokeColor=inherit;overflow=hidden;fillColor=none;top=0;left=0;bottom=0;right=0;pointerEvents=1;" parent="MxvVfjlIRxyCvqryUWun-21" vertex="1">
          <mxGeometry x="120" width="60" height="40" as="geometry">
            <mxRectangle width="60" height="40" as="alternateBounds" />
          </mxGeometry>
        </mxCell>
        <mxCell id="MxvVfjlIRxyCvqryUWun-25" value="" style="shape=partialRectangle;html=1;whiteSpace=wrap;connectable=0;strokeColor=inherit;overflow=hidden;fillColor=none;top=0;left=0;bottom=0;right=0;pointerEvents=1;" parent="MxvVfjlIRxyCvqryUWun-21" vertex="1">
          <mxGeometry x="180" width="60" height="40" as="geometry">
            <mxRectangle width="60" height="40" as="alternateBounds" />
          </mxGeometry>
        </mxCell>
        <mxCell id="MxvVfjlIRxyCvqryUWun-26" value="" style="shape=partialRectangle;html=1;whiteSpace=wrap;connectable=0;strokeColor=inherit;overflow=hidden;fillColor=none;top=0;left=0;bottom=0;right=0;pointerEvents=1;" parent="MxvVfjlIRxyCvqryUWun-21" vertex="1">
          <mxGeometry x="240" width="60" height="40" as="geometry">
            <mxRectangle width="60" height="40" as="alternateBounds" />
          </mxGeometry>
        </mxCell>
        <mxCell id="MxvVfjlIRxyCvqryUWun-27" value="" style="shape=partialRectangle;html=1;whiteSpace=wrap;connectable=0;strokeColor=inherit;overflow=hidden;fillColor=none;top=0;left=0;bottom=0;right=0;pointerEvents=1;" parent="MxvVfjlIRxyCvqryUWun-21" vertex="1">
          <mxGeometry x="300" width="60" height="40" as="geometry">
            <mxRectangle width="60" height="40" as="alternateBounds" />
          </mxGeometry>
        </mxCell>
        <mxCell id="MxvVfjlIRxyCvqryUWun-28" value="" style="shape=partialRectangle;html=1;whiteSpace=wrap;connectable=0;strokeColor=inherit;overflow=hidden;fillColor=none;top=0;left=0;bottom=0;right=0;pointerEvents=1;" parent="MxvVfjlIRxyCvqryUWun-21" vertex="1">
          <mxGeometry x="360" width="60" height="40" as="geometry">
            <mxRectangle width="60" height="40" as="alternateBounds" />
          </mxGeometry>
        </mxCell>
        <mxCell id="MxvVfjlIRxyCvqryUWun-29" value="" style="shape=partialRectangle;html=1;whiteSpace=wrap;connectable=0;strokeColor=inherit;overflow=hidden;fillColor=none;top=0;left=0;bottom=0;right=0;pointerEvents=1;" parent="MxvVfjlIRxyCvqryUWun-21" vertex="1">
          <mxGeometry x="420" width="60" height="40" as="geometry">
            <mxRectangle width="60" height="40" as="alternateBounds" />
          </mxGeometry>
        </mxCell>
        <mxCell id="MxvVfjlIRxyCvqryUWun-30" value="" style="shape=partialRectangle;html=1;whiteSpace=wrap;connectable=0;strokeColor=inherit;overflow=hidden;fillColor=none;top=0;left=0;bottom=0;right=0;pointerEvents=1;" parent="MxvVfjlIRxyCvqryUWun-21" vertex="1">
          <mxGeometry x="480" width="60" height="40" as="geometry">
            <mxRectangle width="60" height="40" as="alternateBounds" />
          </mxGeometry>
        </mxCell>
        <mxCell id="MxvVfjlIRxyCvqryUWun-31" value="" style="shape=partialRectangle;html=1;whiteSpace=wrap;connectable=0;strokeColor=inherit;overflow=hidden;fillColor=none;top=0;left=0;bottom=0;right=0;pointerEvents=1;" parent="MxvVfjlIRxyCvqryUWun-21" vertex="1">
          <mxGeometry x="540" width="60" height="40" as="geometry">
            <mxRectangle width="60" height="40" as="alternateBounds" />
          </mxGeometry>
        </mxCell>
        <mxCell id="MxvVfjlIRxyCvqryUWun-32" value="" style="shape=partialRectangle;html=1;whiteSpace=wrap;connectable=0;strokeColor=inherit;overflow=hidden;fillColor=none;top=0;left=0;bottom=0;right=0;pointerEvents=1;" parent="MxvVfjlIRxyCvqryUWun-21" vertex="1">
          <mxGeometry x="600" width="60" height="40" as="geometry">
            <mxRectangle width="60" height="40" as="alternateBounds" />
          </mxGeometry>
        </mxCell>
        <mxCell id="MxvVfjlIRxyCvqryUWun-33" value="" style="shape=partialRectangle;html=1;whiteSpace=wrap;connectable=0;strokeColor=inherit;overflow=hidden;fillColor=none;top=0;left=0;bottom=0;right=0;pointerEvents=1;" parent="MxvVfjlIRxyCvqryUWun-21" vertex="1">
          <mxGeometry x="660" width="60" height="40" as="geometry">
            <mxRectangle width="60" height="40" as="alternateBounds" />
          </mxGeometry>
        </mxCell>
        <mxCell id="MxvVfjlIRxyCvqryUWun-34" value="" style="shape=tableRow;horizontal=0;startSize=0;swimlaneHead=0;swimlaneBody=0;strokeColor=inherit;top=0;left=0;bottom=0;right=0;collapsible=0;dropTarget=0;fillColor=none;points=[[0,0.5],[1,0.5]];portConstraint=eastwest;" parent="MxvVfjlIRxyCvqryUWun-7" vertex="1">
          <mxGeometry y="80" width="720" height="40" as="geometry" />
        </mxCell>
        <mxCell id="MxvVfjlIRxyCvqryUWun-35" value="m1" style="shape=partialRectangle;html=1;whiteSpace=wrap;connectable=0;strokeColor=inherit;overflow=hidden;fillColor=none;top=0;left=0;bottom=0;right=0;pointerEvents=1;" parent="MxvVfjlIRxyCvqryUWun-34" vertex="1">
          <mxGeometry width="60" height="40" as="geometry">
            <mxRectangle width="60" height="40" as="alternateBounds" />
          </mxGeometry>
        </mxCell>
        <mxCell id="MxvVfjlIRxyCvqryUWun-36" value="" style="shape=partialRectangle;html=1;whiteSpace=wrap;connectable=0;strokeColor=inherit;overflow=hidden;fillColor=none;top=0;left=0;bottom=0;right=0;pointerEvents=1;" parent="MxvVfjlIRxyCvqryUWun-34" vertex="1">
          <mxGeometry x="60" width="60" height="40" as="geometry">
            <mxRectangle width="60" height="40" as="alternateBounds" />
          </mxGeometry>
        </mxCell>
        <mxCell id="MxvVfjlIRxyCvqryUWun-37" value="" style="shape=partialRectangle;html=1;whiteSpace=wrap;connectable=0;strokeColor=inherit;overflow=hidden;fillColor=none;top=0;left=0;bottom=0;right=0;pointerEvents=1;" parent="MxvVfjlIRxyCvqryUWun-34" vertex="1">
          <mxGeometry x="120" width="60" height="40" as="geometry">
            <mxRectangle width="60" height="40" as="alternateBounds" />
          </mxGeometry>
        </mxCell>
        <mxCell id="MxvVfjlIRxyCvqryUWun-38" value="" style="shape=partialRectangle;html=1;whiteSpace=wrap;connectable=0;strokeColor=inherit;overflow=hidden;fillColor=none;top=0;left=0;bottom=0;right=0;pointerEvents=1;" parent="MxvVfjlIRxyCvqryUWun-34" vertex="1">
          <mxGeometry x="180" width="60" height="40" as="geometry">
            <mxRectangle width="60" height="40" as="alternateBounds" />
          </mxGeometry>
        </mxCell>
        <mxCell id="MxvVfjlIRxyCvqryUWun-39" value="" style="shape=partialRectangle;html=1;whiteSpace=wrap;connectable=0;strokeColor=inherit;overflow=hidden;fillColor=none;top=0;left=0;bottom=0;right=0;pointerEvents=1;" parent="MxvVfjlIRxyCvqryUWun-34" vertex="1">
          <mxGeometry x="240" width="60" height="40" as="geometry">
            <mxRectangle width="60" height="40" as="alternateBounds" />
          </mxGeometry>
        </mxCell>
        <mxCell id="MxvVfjlIRxyCvqryUWun-40" value="" style="shape=partialRectangle;html=1;whiteSpace=wrap;connectable=0;strokeColor=inherit;overflow=hidden;fillColor=none;top=0;left=0;bottom=0;right=0;pointerEvents=1;" parent="MxvVfjlIRxyCvqryUWun-34" vertex="1">
          <mxGeometry x="300" width="60" height="40" as="geometry">
            <mxRectangle width="60" height="40" as="alternateBounds" />
          </mxGeometry>
        </mxCell>
        <mxCell id="MxvVfjlIRxyCvqryUWun-41" value="" style="shape=partialRectangle;html=1;whiteSpace=wrap;connectable=0;strokeColor=inherit;overflow=hidden;fillColor=none;top=0;left=0;bottom=0;right=0;pointerEvents=1;" parent="MxvVfjlIRxyCvqryUWun-34" vertex="1">
          <mxGeometry x="360" width="60" height="40" as="geometry">
            <mxRectangle width="60" height="40" as="alternateBounds" />
          </mxGeometry>
        </mxCell>
        <mxCell id="MxvVfjlIRxyCvqryUWun-42" value="" style="shape=partialRectangle;html=1;whiteSpace=wrap;connectable=0;strokeColor=inherit;overflow=hidden;fillColor=none;top=0;left=0;bottom=0;right=0;pointerEvents=1;" parent="MxvVfjlIRxyCvqryUWun-34" vertex="1">
          <mxGeometry x="420" width="60" height="40" as="geometry">
            <mxRectangle width="60" height="40" as="alternateBounds" />
          </mxGeometry>
        </mxCell>
        <mxCell id="MxvVfjlIRxyCvqryUWun-43" value="" style="shape=partialRectangle;html=1;whiteSpace=wrap;connectable=0;strokeColor=inherit;overflow=hidden;fillColor=none;top=0;left=0;bottom=0;right=0;pointerEvents=1;" parent="MxvVfjlIRxyCvqryUWun-34" vertex="1">
          <mxGeometry x="480" width="60" height="40" as="geometry">
            <mxRectangle width="60" height="40" as="alternateBounds" />
          </mxGeometry>
        </mxCell>
        <mxCell id="MxvVfjlIRxyCvqryUWun-44" value="" style="shape=partialRectangle;html=1;whiteSpace=wrap;connectable=0;strokeColor=inherit;overflow=hidden;fillColor=none;top=0;left=0;bottom=0;right=0;pointerEvents=1;" parent="MxvVfjlIRxyCvqryUWun-34" vertex="1">
          <mxGeometry x="540" width="60" height="40" as="geometry">
            <mxRectangle width="60" height="40" as="alternateBounds" />
          </mxGeometry>
        </mxCell>
        <mxCell id="MxvVfjlIRxyCvqryUWun-45" value="" style="shape=partialRectangle;html=1;whiteSpace=wrap;connectable=0;strokeColor=inherit;overflow=hidden;fillColor=none;top=0;left=0;bottom=0;right=0;pointerEvents=1;" parent="MxvVfjlIRxyCvqryUWun-34" vertex="1">
          <mxGeometry x="600" width="60" height="40" as="geometry">
            <mxRectangle width="60" height="40" as="alternateBounds" />
          </mxGeometry>
        </mxCell>
        <mxCell id="MxvVfjlIRxyCvqryUWun-46" value="" style="shape=partialRectangle;html=1;whiteSpace=wrap;connectable=0;strokeColor=inherit;overflow=hidden;fillColor=none;top=0;left=0;bottom=0;right=0;pointerEvents=1;" parent="MxvVfjlIRxyCvqryUWun-34" vertex="1">
          <mxGeometry x="660" width="60" height="40" as="geometry">
            <mxRectangle width="60" height="40" as="alternateBounds" />
          </mxGeometry>
        </mxCell>
        <mxCell id="4DsmI3iKymZhdQjuD5cG-4" value="" style="shape=table;startSize=0;container=1;collapsible=0;childLayout=tableLayout;" parent="1" vertex="1">
          <mxGeometry x="-1110" y="230" width="120" height="120" as="geometry" />
        </mxCell>
        <mxCell id="4DsmI3iKymZhdQjuD5cG-5" value="" style="shape=tableRow;horizontal=0;startSize=0;swimlaneHead=0;swimlaneBody=0;strokeColor=inherit;top=0;left=0;bottom=0;right=0;collapsible=0;dropTarget=0;fillColor=none;points=[[0,0.5],[1,0.5]];portConstraint=eastwest;" parent="4DsmI3iKymZhdQjuD5cG-4" vertex="1">
          <mxGeometry width="120" height="40" as="geometry" />
        </mxCell>
        <mxCell id="4DsmI3iKymZhdQjuD5cG-6" value="1" style="shape=partialRectangle;html=1;whiteSpace=wrap;connectable=0;strokeColor=inherit;overflow=hidden;fillColor=none;top=0;left=0;bottom=0;right=0;pointerEvents=1;" parent="4DsmI3iKymZhdQjuD5cG-5" vertex="1">
          <mxGeometry width="60" height="40" as="geometry">
            <mxRectangle width="60" height="40" as="alternateBounds" />
          </mxGeometry>
        </mxCell>
        <mxCell id="4DsmI3iKymZhdQjuD5cG-7" value="0" style="shape=partialRectangle;html=1;whiteSpace=wrap;connectable=0;strokeColor=inherit;overflow=hidden;fillColor=none;top=0;left=0;bottom=0;right=0;pointerEvents=1;" parent="4DsmI3iKymZhdQjuD5cG-5" vertex="1">
          <mxGeometry x="60" width="60" height="40" as="geometry">
            <mxRectangle width="60" height="40" as="alternateBounds" />
          </mxGeometry>
        </mxCell>
        <mxCell id="4DsmI3iKymZhdQjuD5cG-8" value="" style="shape=tableRow;horizontal=0;startSize=0;swimlaneHead=0;swimlaneBody=0;strokeColor=inherit;top=0;left=0;bottom=0;right=0;collapsible=0;dropTarget=0;fillColor=none;points=[[0,0.5],[1,0.5]];portConstraint=eastwest;" parent="4DsmI3iKymZhdQjuD5cG-4" vertex="1">
          <mxGeometry y="40" width="120" height="40" as="geometry" />
        </mxCell>
        <mxCell id="4DsmI3iKymZhdQjuD5cG-9" value="2" style="shape=partialRectangle;html=1;whiteSpace=wrap;connectable=0;strokeColor=inherit;overflow=hidden;fillColor=none;top=0;left=0;bottom=0;right=0;pointerEvents=1;" parent="4DsmI3iKymZhdQjuD5cG-8" vertex="1">
          <mxGeometry width="60" height="40" as="geometry">
            <mxRectangle width="60" height="40" as="alternateBounds" />
          </mxGeometry>
        </mxCell>
        <mxCell id="4DsmI3iKymZhdQjuD5cG-10" value="1,2,3" style="shape=partialRectangle;html=1;whiteSpace=wrap;connectable=0;strokeColor=inherit;overflow=hidden;fillColor=none;top=0;left=0;bottom=0;right=0;pointerEvents=1;" parent="4DsmI3iKymZhdQjuD5cG-8" vertex="1">
          <mxGeometry x="60" width="60" height="40" as="geometry">
            <mxRectangle width="60" height="40" as="alternateBounds" />
          </mxGeometry>
        </mxCell>
        <mxCell id="4DsmI3iKymZhdQjuD5cG-11" value="" style="shape=tableRow;horizontal=0;startSize=0;swimlaneHead=0;swimlaneBody=0;strokeColor=inherit;top=0;left=0;bottom=0;right=0;collapsible=0;dropTarget=0;fillColor=none;points=[[0,0.5],[1,0.5]];portConstraint=eastwest;" parent="4DsmI3iKymZhdQjuD5cG-4" vertex="1">
          <mxGeometry y="80" width="120" height="40" as="geometry" />
        </mxCell>
        <mxCell id="4DsmI3iKymZhdQjuD5cG-12" value="4" style="shape=partialRectangle;html=1;whiteSpace=wrap;connectable=0;strokeColor=inherit;overflow=hidden;fillColor=none;top=0;left=0;bottom=0;right=0;pointerEvents=1;" parent="4DsmI3iKymZhdQjuD5cG-11" vertex="1">
          <mxGeometry width="60" height="40" as="geometry">
            <mxRectangle width="60" height="40" as="alternateBounds" />
          </mxGeometry>
        </mxCell>
        <mxCell id="4DsmI3iKymZhdQjuD5cG-13" value="3,4,5" style="shape=partialRectangle;html=1;whiteSpace=wrap;connectable=0;strokeColor=inherit;overflow=hidden;fillColor=none;top=0;left=0;bottom=0;right=0;pointerEvents=1;" parent="4DsmI3iKymZhdQjuD5cG-11" vertex="1">
          <mxGeometry x="60" width="60" height="40" as="geometry">
            <mxRectangle width="60" height="40" as="alternateBounds" />
          </mxGeometry>
        </mxCell>
        <mxCell id="ObXEONrgj2qGXS0TLxfF-1" value="&lt;h1&gt;&lt;font style=&quot;font-size: 20px;&quot;&gt;Method 1:&lt;/font&gt;&lt;/h1&gt;&lt;p style=&quot;font-size: 16px;&quot;&gt;1. Separate into Progressions (k, l, m ...)&lt;/p&gt;&lt;p style=&quot;font-size: 16px;&quot;&gt;2. Count occurrences of each number from each progression&amp;nbsp;&lt;/p&gt;&lt;p style=&quot;font-size: 16px;&quot;&gt;&amp;nbsp;k: C(k1), C(k2), ... C(kn)&lt;/p&gt;&lt;p style=&quot;font-size: 16px;&quot;&gt;&amp;nbsp;l: C(l1), C(l2), ... C(ln)&lt;/p&gt;&lt;p style=&quot;font-size: 16px;&quot;&gt;3. Per element in original array:&lt;/p&gt;&lt;p style=&quot;font-size: 16px;&quot;&gt;go to corresponding progression -&amp;gt; find i (from ki to kn)&lt;/p&gt;&lt;p style=&quot;font-size: 16px;&quot;&gt;Calculate combinations (using counts from ki+1 to kn)&lt;/p&gt;&lt;p style=&quot;font-size: 16px;&quot;&gt;&lt;span style=&quot;background-color: initial;&quot;&gt;Subtract element from counts&lt;/span&gt;&lt;br&gt;&lt;/p&gt;&lt;h1&gt;&lt;font style=&quot;font-size: 20px;&quot;&gt;Complexity&lt;/font&gt;&lt;/h1&gt;&lt;div style=&quot;font-size: 16px;&quot;&gt;Building data structure (O(n))&lt;/div&gt;&lt;div style=&quot;font-size: 16px;&quot;&gt;Count Occurrences: O(n)&lt;/div&gt;&lt;div style=&quot;font-size: 16px;&quot;&gt;Traverse and count O(n) * len(counts) + O(n) * len(counts)&lt;/div&gt;&lt;div style=&quot;font-size: 16px;&quot;&gt;&lt;br&gt;&lt;/div&gt;&lt;div style=&quot;font-size: 16px;&quot;&gt;&lt;br&gt;&lt;/div&gt;&lt;div style=&quot;font-size: 16px;&quot;&gt;&lt;br&gt;&lt;/div&gt;&lt;div&gt;&lt;font style=&quot;font-size: 20px;&quot;&gt;&lt;br&gt;&lt;/font&gt;&lt;/div&gt;" style="text;html=1;strokeColor=none;fillColor=none;align=left;verticalAlign=middle;whiteSpace=wrap;rounded=0;" parent="1" vertex="1">
          <mxGeometry x="-640" y="100" width="730" height="480" as="geometry" />
        </mxCell>
        <mxCell id="hKfgm85lbPHSR3TV0tyF-58" value="" style="shape=table;startSize=0;container=1;collapsible=0;childLayout=tableLayout;" vertex="1" parent="1">
          <mxGeometry x="-850" y="620" width="280" height="190" as="geometry" />
        </mxCell>
        <mxCell id="hKfgm85lbPHSR3TV0tyF-59" value="" style="shape=tableRow;horizontal=0;startSize=0;swimlaneHead=0;swimlaneBody=0;strokeColor=inherit;top=0;left=0;bottom=0;right=0;collapsible=0;dropTarget=0;fillColor=none;points=[[0,0.5],[1,0.5]];portConstraint=eastwest;" vertex="1" parent="hKfgm85lbPHSR3TV0tyF-58">
          <mxGeometry width="280" height="63" as="geometry" />
        </mxCell>
        <mxCell id="hKfgm85lbPHSR3TV0tyF-60" value="k1" style="shape=partialRectangle;html=1;whiteSpace=wrap;connectable=0;strokeColor=inherit;overflow=hidden;fillColor=none;top=0;left=0;bottom=0;right=0;pointerEvents=1;" vertex="1" parent="hKfgm85lbPHSR3TV0tyF-59">
          <mxGeometry width="70" height="63" as="geometry">
            <mxRectangle width="70" height="63" as="alternateBounds" />
          </mxGeometry>
        </mxCell>
        <mxCell id="hKfgm85lbPHSR3TV0tyF-61" value="i, C(x1)" style="shape=partialRectangle;html=1;whiteSpace=wrap;connectable=0;strokeColor=inherit;overflow=hidden;fillColor=none;top=0;left=0;bottom=0;right=0;pointerEvents=1;" vertex="1" parent="hKfgm85lbPHSR3TV0tyF-59">
          <mxGeometry x="70" width="70" height="63" as="geometry">
            <mxRectangle width="70" height="63" as="alternateBounds" />
          </mxGeometry>
        </mxCell>
        <mxCell id="hKfgm85lbPHSR3TV0tyF-62" value="i2, C(x1)" style="shape=partialRectangle;html=1;whiteSpace=wrap;connectable=0;strokeColor=inherit;overflow=hidden;fillColor=none;top=0;left=0;bottom=0;right=0;pointerEvents=1;" vertex="1" parent="hKfgm85lbPHSR3TV0tyF-59">
          <mxGeometry x="140" width="70" height="63" as="geometry">
            <mxRectangle width="70" height="63" as="alternateBounds" />
          </mxGeometry>
        </mxCell>
        <mxCell id="hKfgm85lbPHSR3TV0tyF-63" value="i3, C(x1)" style="shape=partialRectangle;html=1;whiteSpace=wrap;connectable=0;strokeColor=inherit;overflow=hidden;fillColor=none;top=0;left=0;bottom=0;right=0;pointerEvents=1;" vertex="1" parent="hKfgm85lbPHSR3TV0tyF-59">
          <mxGeometry x="210" width="70" height="63" as="geometry">
            <mxRectangle width="70" height="63" as="alternateBounds" />
          </mxGeometry>
        </mxCell>
        <mxCell id="hKfgm85lbPHSR3TV0tyF-64" value="" style="shape=tableRow;horizontal=0;startSize=0;swimlaneHead=0;swimlaneBody=0;strokeColor=inherit;top=0;left=0;bottom=0;right=0;collapsible=0;dropTarget=0;fillColor=none;points=[[0,0.5],[1,0.5]];portConstraint=eastwest;" vertex="1" parent="hKfgm85lbPHSR3TV0tyF-58">
          <mxGeometry y="63" width="280" height="64" as="geometry" />
        </mxCell>
        <mxCell id="hKfgm85lbPHSR3TV0tyF-65" value="k2" style="shape=partialRectangle;html=1;whiteSpace=wrap;connectable=0;strokeColor=inherit;overflow=hidden;fillColor=none;top=0;left=0;bottom=0;right=0;pointerEvents=1;" vertex="1" parent="hKfgm85lbPHSR3TV0tyF-64">
          <mxGeometry width="70" height="64" as="geometry">
            <mxRectangle width="70" height="64" as="alternateBounds" />
          </mxGeometry>
        </mxCell>
        <mxCell id="hKfgm85lbPHSR3TV0tyF-66" value="j, C(k2)" style="shape=partialRectangle;html=1;whiteSpace=wrap;connectable=0;strokeColor=inherit;overflow=hidden;fillColor=none;top=0;left=0;bottom=0;right=0;pointerEvents=1;" vertex="1" parent="hKfgm85lbPHSR3TV0tyF-64">
          <mxGeometry x="70" width="70" height="64" as="geometry">
            <mxRectangle width="70" height="64" as="alternateBounds" />
          </mxGeometry>
        </mxCell>
        <mxCell id="hKfgm85lbPHSR3TV0tyF-67" value="j2, C(k2)" style="shape=partialRectangle;html=1;whiteSpace=wrap;connectable=0;strokeColor=inherit;overflow=hidden;fillColor=none;top=0;left=0;bottom=0;right=0;pointerEvents=1;" vertex="1" parent="hKfgm85lbPHSR3TV0tyF-64">
          <mxGeometry x="140" width="70" height="64" as="geometry">
            <mxRectangle width="70" height="64" as="alternateBounds" />
          </mxGeometry>
        </mxCell>
        <mxCell id="hKfgm85lbPHSR3TV0tyF-68" value="j3, C(k3)" style="shape=partialRectangle;html=1;whiteSpace=wrap;connectable=0;strokeColor=inherit;overflow=hidden;fillColor=none;top=0;left=0;bottom=0;right=0;pointerEvents=1;" vertex="1" parent="hKfgm85lbPHSR3TV0tyF-64">
          <mxGeometry x="210" width="70" height="64" as="geometry">
            <mxRectangle width="70" height="64" as="alternateBounds" />
          </mxGeometry>
        </mxCell>
        <mxCell id="hKfgm85lbPHSR3TV0tyF-69" value="" style="shape=tableRow;horizontal=0;startSize=0;swimlaneHead=0;swimlaneBody=0;strokeColor=inherit;top=0;left=0;bottom=0;right=0;collapsible=0;dropTarget=0;fillColor=none;points=[[0,0.5],[1,0.5]];portConstraint=eastwest;" vertex="1" parent="hKfgm85lbPHSR3TV0tyF-58">
          <mxGeometry y="127" width="280" height="63" as="geometry" />
        </mxCell>
        <mxCell id="hKfgm85lbPHSR3TV0tyF-70" value="l1" style="shape=partialRectangle;html=1;whiteSpace=wrap;connectable=0;strokeColor=inherit;overflow=hidden;fillColor=none;top=0;left=0;bottom=0;right=0;pointerEvents=1;" vertex="1" parent="hKfgm85lbPHSR3TV0tyF-69">
          <mxGeometry width="70" height="63" as="geometry">
            <mxRectangle width="70" height="63" as="alternateBounds" />
          </mxGeometry>
        </mxCell>
        <mxCell id="hKfgm85lbPHSR3TV0tyF-71" value="" style="shape=partialRectangle;html=1;whiteSpace=wrap;connectable=0;strokeColor=inherit;overflow=hidden;fillColor=none;top=0;left=0;bottom=0;right=0;pointerEvents=1;" vertex="1" parent="hKfgm85lbPHSR3TV0tyF-69">
          <mxGeometry x="70" width="70" height="63" as="geometry">
            <mxRectangle width="70" height="63" as="alternateBounds" />
          </mxGeometry>
        </mxCell>
        <mxCell id="hKfgm85lbPHSR3TV0tyF-72" value="" style="shape=partialRectangle;html=1;whiteSpace=wrap;connectable=0;strokeColor=inherit;overflow=hidden;fillColor=none;top=0;left=0;bottom=0;right=0;pointerEvents=1;" vertex="1" parent="hKfgm85lbPHSR3TV0tyF-69">
          <mxGeometry x="140" width="70" height="63" as="geometry">
            <mxRectangle width="70" height="63" as="alternateBounds" />
          </mxGeometry>
        </mxCell>
        <mxCell id="hKfgm85lbPHSR3TV0tyF-73" value="" style="shape=partialRectangle;html=1;whiteSpace=wrap;connectable=0;strokeColor=inherit;overflow=hidden;fillColor=none;top=0;left=0;bottom=0;right=0;pointerEvents=1;" vertex="1" parent="hKfgm85lbPHSR3TV0tyF-69">
          <mxGeometry x="210" width="70" height="63" as="geometry">
            <mxRectangle width="70" height="63" as="alternateBounds" />
          </mxGeometry>
        </mxCell>
        <mxCell id="hKfgm85lbPHSR3TV0tyF-74" value="" style="shape=table;startSize=0;container=1;collapsible=0;childLayout=tableLayout;" vertex="1" parent="1">
          <mxGeometry x="-340" y="610" width="280" height="190" as="geometry" />
        </mxCell>
        <mxCell id="hKfgm85lbPHSR3TV0tyF-75" value="" style="shape=tableRow;horizontal=0;startSize=0;swimlaneHead=0;swimlaneBody=0;strokeColor=inherit;top=0;left=0;bottom=0;right=0;collapsible=0;dropTarget=0;fillColor=none;points=[[0,0.5],[1,0.5]];portConstraint=eastwest;" vertex="1" parent="hKfgm85lbPHSR3TV0tyF-74">
          <mxGeometry width="280" height="63" as="geometry" />
        </mxCell>
        <mxCell id="hKfgm85lbPHSR3TV0tyF-76" value="k1, k2" style="shape=partialRectangle;html=1;whiteSpace=wrap;connectable=0;strokeColor=inherit;overflow=hidden;fillColor=none;top=0;left=0;bottom=0;right=0;pointerEvents=1;" vertex="1" parent="hKfgm85lbPHSR3TV0tyF-75">
          <mxGeometry width="70" height="63" as="geometry">
            <mxRectangle width="70" height="63" as="alternateBounds" />
          </mxGeometry>
        </mxCell>
        <mxCell id="hKfgm85lbPHSR3TV0tyF-77" value="i, C(k1, k2)" style="shape=partialRectangle;html=1;whiteSpace=wrap;connectable=0;strokeColor=inherit;overflow=hidden;fillColor=none;top=0;left=0;bottom=0;right=0;pointerEvents=1;" vertex="1" parent="hKfgm85lbPHSR3TV0tyF-75">
          <mxGeometry x="70" width="70" height="63" as="geometry">
            <mxRectangle width="70" height="63" as="alternateBounds" />
          </mxGeometry>
        </mxCell>
        <mxCell id="hKfgm85lbPHSR3TV0tyF-78" value="i2, C(k1, k2)" style="shape=partialRectangle;html=1;whiteSpace=wrap;connectable=0;strokeColor=inherit;overflow=hidden;fillColor=none;top=0;left=0;bottom=0;right=0;pointerEvents=1;" vertex="1" parent="hKfgm85lbPHSR3TV0tyF-75">
          <mxGeometry x="140" width="70" height="63" as="geometry">
            <mxRectangle width="70" height="63" as="alternateBounds" />
          </mxGeometry>
        </mxCell>
        <mxCell id="hKfgm85lbPHSR3TV0tyF-79" value="i3, C(k1, k2)" style="shape=partialRectangle;html=1;whiteSpace=wrap;connectable=0;strokeColor=inherit;overflow=hidden;fillColor=none;top=0;left=0;bottom=0;right=0;pointerEvents=1;" vertex="1" parent="hKfgm85lbPHSR3TV0tyF-75">
          <mxGeometry x="210" width="70" height="63" as="geometry">
            <mxRectangle width="70" height="63" as="alternateBounds" />
          </mxGeometry>
        </mxCell>
        <mxCell id="hKfgm85lbPHSR3TV0tyF-80" value="" style="shape=tableRow;horizontal=0;startSize=0;swimlaneHead=0;swimlaneBody=0;strokeColor=inherit;top=0;left=0;bottom=0;right=0;collapsible=0;dropTarget=0;fillColor=none;points=[[0,0.5],[1,0.5]];portConstraint=eastwest;" vertex="1" parent="hKfgm85lbPHSR3TV0tyF-74">
          <mxGeometry y="63" width="280" height="64" as="geometry" />
        </mxCell>
        <mxCell id="hKfgm85lbPHSR3TV0tyF-81" value="k2, k3" style="shape=partialRectangle;html=1;whiteSpace=wrap;connectable=0;strokeColor=inherit;overflow=hidden;fillColor=none;top=0;left=0;bottom=0;right=0;pointerEvents=1;" vertex="1" parent="hKfgm85lbPHSR3TV0tyF-80">
          <mxGeometry width="70" height="64" as="geometry">
            <mxRectangle width="70" height="64" as="alternateBounds" />
          </mxGeometry>
        </mxCell>
        <mxCell id="hKfgm85lbPHSR3TV0tyF-82" value="" style="shape=partialRectangle;html=1;whiteSpace=wrap;connectable=0;strokeColor=inherit;overflow=hidden;fillColor=none;top=0;left=0;bottom=0;right=0;pointerEvents=1;" vertex="1" parent="hKfgm85lbPHSR3TV0tyF-80">
          <mxGeometry x="70" width="70" height="64" as="geometry">
            <mxRectangle width="70" height="64" as="alternateBounds" />
          </mxGeometry>
        </mxCell>
        <mxCell id="hKfgm85lbPHSR3TV0tyF-83" value="" style="shape=partialRectangle;html=1;whiteSpace=wrap;connectable=0;strokeColor=inherit;overflow=hidden;fillColor=none;top=0;left=0;bottom=0;right=0;pointerEvents=1;" vertex="1" parent="hKfgm85lbPHSR3TV0tyF-80">
          <mxGeometry x="140" width="70" height="64" as="geometry">
            <mxRectangle width="70" height="64" as="alternateBounds" />
          </mxGeometry>
        </mxCell>
        <mxCell id="hKfgm85lbPHSR3TV0tyF-84" value="" style="shape=partialRectangle;html=1;whiteSpace=wrap;connectable=0;strokeColor=inherit;overflow=hidden;fillColor=none;top=0;left=0;bottom=0;right=0;pointerEvents=1;" vertex="1" parent="hKfgm85lbPHSR3TV0tyF-80">
          <mxGeometry x="210" width="70" height="64" as="geometry">
            <mxRectangle width="70" height="64" as="alternateBounds" />
          </mxGeometry>
        </mxCell>
        <mxCell id="hKfgm85lbPHSR3TV0tyF-85" value="" style="shape=tableRow;horizontal=0;startSize=0;swimlaneHead=0;swimlaneBody=0;strokeColor=inherit;top=0;left=0;bottom=0;right=0;collapsible=0;dropTarget=0;fillColor=none;points=[[0,0.5],[1,0.5]];portConstraint=eastwest;" vertex="1" parent="hKfgm85lbPHSR3TV0tyF-74">
          <mxGeometry y="127" width="280" height="63" as="geometry" />
        </mxCell>
        <mxCell id="hKfgm85lbPHSR3TV0tyF-86" value="l1, l2" style="shape=partialRectangle;html=1;whiteSpace=wrap;connectable=0;strokeColor=inherit;overflow=hidden;fillColor=none;top=0;left=0;bottom=0;right=0;pointerEvents=1;" vertex="1" parent="hKfgm85lbPHSR3TV0tyF-85">
          <mxGeometry width="70" height="63" as="geometry">
            <mxRectangle width="70" height="63" as="alternateBounds" />
          </mxGeometry>
        </mxCell>
        <mxCell id="hKfgm85lbPHSR3TV0tyF-87" value="" style="shape=partialRectangle;html=1;whiteSpace=wrap;connectable=0;strokeColor=inherit;overflow=hidden;fillColor=none;top=0;left=0;bottom=0;right=0;pointerEvents=1;" vertex="1" parent="hKfgm85lbPHSR3TV0tyF-85">
          <mxGeometry x="70" width="70" height="63" as="geometry">
            <mxRectangle width="70" height="63" as="alternateBounds" />
          </mxGeometry>
        </mxCell>
        <mxCell id="hKfgm85lbPHSR3TV0tyF-88" value="" style="shape=partialRectangle;html=1;whiteSpace=wrap;connectable=0;strokeColor=inherit;overflow=hidden;fillColor=none;top=0;left=0;bottom=0;right=0;pointerEvents=1;" vertex="1" parent="hKfgm85lbPHSR3TV0tyF-85">
          <mxGeometry x="140" width="70" height="63" as="geometry">
            <mxRectangle width="70" height="63" as="alternateBounds" />
          </mxGeometry>
        </mxCell>
        <mxCell id="hKfgm85lbPHSR3TV0tyF-89" value="" style="shape=partialRectangle;html=1;whiteSpace=wrap;connectable=0;strokeColor=inherit;overflow=hidden;fillColor=none;top=0;left=0;bottom=0;right=0;pointerEvents=1;" vertex="1" parent="hKfgm85lbPHSR3TV0tyF-85">
          <mxGeometry x="210" width="70" height="63" as="geometry">
            <mxRectangle width="70" height="63" as="alternateBounds" />
          </mxGeometry>
        </mxCell>
        <mxCell id="hKfgm85lbPHSR3TV0tyF-91" value="" style="shape=table;startSize=0;container=1;collapsible=0;childLayout=tableLayout;" vertex="1" parent="1">
          <mxGeometry x="-850" y="890" width="360" height="160" as="geometry" />
        </mxCell>
        <mxCell id="hKfgm85lbPHSR3TV0tyF-92" value="" style="shape=tableRow;horizontal=0;startSize=0;swimlaneHead=0;swimlaneBody=0;strokeColor=inherit;top=0;left=0;bottom=0;right=0;collapsible=0;dropTarget=0;fillColor=none;points=[[0,0.5],[1,0.5]];portConstraint=eastwest;" vertex="1" parent="hKfgm85lbPHSR3TV0tyF-91">
          <mxGeometry width="360" height="40" as="geometry" />
        </mxCell>
        <mxCell id="hKfgm85lbPHSR3TV0tyF-93" value="x" style="shape=partialRectangle;html=1;whiteSpace=wrap;connectable=0;strokeColor=inherit;overflow=hidden;fillColor=none;top=0;left=0;bottom=0;right=0;pointerEvents=1;" vertex="1" parent="hKfgm85lbPHSR3TV0tyF-92">
          <mxGeometry width="60" height="40" as="geometry">
            <mxRectangle width="60" height="40" as="alternateBounds" />
          </mxGeometry>
        </mxCell>
        <mxCell id="hKfgm85lbPHSR3TV0tyF-94" value="0" style="shape=partialRectangle;html=1;whiteSpace=wrap;connectable=0;strokeColor=inherit;overflow=hidden;fillColor=none;top=0;left=0;bottom=0;right=0;pointerEvents=1;" vertex="1" parent="hKfgm85lbPHSR3TV0tyF-92">
          <mxGeometry x="60" width="60" height="40" as="geometry">
            <mxRectangle width="60" height="40" as="alternateBounds" />
          </mxGeometry>
        </mxCell>
        <mxCell id="hKfgm85lbPHSR3TV0tyF-95" value="1" style="shape=partialRectangle;html=1;whiteSpace=wrap;connectable=0;strokeColor=inherit;overflow=hidden;fillColor=none;top=0;left=0;bottom=0;right=0;pointerEvents=1;" vertex="1" parent="hKfgm85lbPHSR3TV0tyF-92">
          <mxGeometry x="120" width="60" height="40" as="geometry">
            <mxRectangle width="60" height="40" as="alternateBounds" />
          </mxGeometry>
        </mxCell>
        <mxCell id="hKfgm85lbPHSR3TV0tyF-96" value="1" style="shape=partialRectangle;html=1;whiteSpace=wrap;connectable=0;strokeColor=inherit;overflow=hidden;fillColor=none;top=0;left=0;bottom=0;right=0;pointerEvents=1;" vertex="1" parent="hKfgm85lbPHSR3TV0tyF-92">
          <mxGeometry x="180" width="60" height="40" as="geometry">
            <mxRectangle width="60" height="40" as="alternateBounds" />
          </mxGeometry>
        </mxCell>
        <mxCell id="hKfgm85lbPHSR3TV0tyF-97" value="0" style="shape=partialRectangle;html=1;whiteSpace=wrap;connectable=0;strokeColor=inherit;overflow=hidden;fillColor=none;top=0;left=0;bottom=0;right=0;pointerEvents=1;" vertex="1" parent="hKfgm85lbPHSR3TV0tyF-92">
          <mxGeometry x="240" width="60" height="40" as="geometry">
            <mxRectangle width="60" height="40" as="alternateBounds" />
          </mxGeometry>
        </mxCell>
        <mxCell id="hKfgm85lbPHSR3TV0tyF-98" value="0" style="shape=partialRectangle;html=1;whiteSpace=wrap;connectable=0;strokeColor=inherit;overflow=hidden;fillColor=none;top=0;left=0;bottom=0;right=0;pointerEvents=1;" vertex="1" parent="hKfgm85lbPHSR3TV0tyF-92">
          <mxGeometry x="300" width="60" height="40" as="geometry">
            <mxRectangle width="60" height="40" as="alternateBounds" />
          </mxGeometry>
        </mxCell>
        <mxCell id="hKfgm85lbPHSR3TV0tyF-99" value="" style="shape=tableRow;horizontal=0;startSize=0;swimlaneHead=0;swimlaneBody=0;strokeColor=inherit;top=0;left=0;bottom=0;right=0;collapsible=0;dropTarget=0;fillColor=none;points=[[0,0.5],[1,0.5]];portConstraint=eastwest;" vertex="1" parent="hKfgm85lbPHSR3TV0tyF-91">
          <mxGeometry y="40" width="360" height="40" as="geometry" />
        </mxCell>
        <mxCell id="hKfgm85lbPHSR3TV0tyF-100" value="C(k1,k2)" style="shape=partialRectangle;html=1;whiteSpace=wrap;connectable=0;strokeColor=inherit;overflow=hidden;fillColor=none;top=0;left=0;bottom=0;right=0;pointerEvents=1;" vertex="1" parent="hKfgm85lbPHSR3TV0tyF-99">
          <mxGeometry width="60" height="40" as="geometry">
            <mxRectangle width="60" height="40" as="alternateBounds" />
          </mxGeometry>
        </mxCell>
        <mxCell id="hKfgm85lbPHSR3TV0tyF-101" value="1, 1" style="shape=partialRectangle;html=1;whiteSpace=wrap;connectable=0;strokeColor=inherit;overflow=hidden;fillColor=none;top=0;left=0;bottom=0;right=0;pointerEvents=1;" vertex="1" parent="hKfgm85lbPHSR3TV0tyF-99">
          <mxGeometry x="60" width="60" height="40" as="geometry">
            <mxRectangle width="60" height="40" as="alternateBounds" />
          </mxGeometry>
        </mxCell>
        <mxCell id="hKfgm85lbPHSR3TV0tyF-102" value="2, 2" style="shape=partialRectangle;html=1;whiteSpace=wrap;connectable=0;strokeColor=inherit;overflow=hidden;fillColor=none;top=0;left=0;bottom=0;right=0;pointerEvents=1;" vertex="1" parent="hKfgm85lbPHSR3TV0tyF-99">
          <mxGeometry x="120" width="60" height="40" as="geometry">
            <mxRectangle width="60" height="40" as="alternateBounds" />
          </mxGeometry>
        </mxCell>
        <mxCell id="hKfgm85lbPHSR3TV0tyF-103" value="" style="shape=partialRectangle;html=1;whiteSpace=wrap;connectable=0;strokeColor=inherit;overflow=hidden;fillColor=none;top=0;left=0;bottom=0;right=0;pointerEvents=1;" vertex="1" parent="hKfgm85lbPHSR3TV0tyF-99">
          <mxGeometry x="180" width="60" height="40" as="geometry">
            <mxRectangle width="60" height="40" as="alternateBounds" />
          </mxGeometry>
        </mxCell>
        <mxCell id="hKfgm85lbPHSR3TV0tyF-104" value="" style="shape=partialRectangle;html=1;whiteSpace=wrap;connectable=0;strokeColor=inherit;overflow=hidden;fillColor=none;top=0;left=0;bottom=0;right=0;pointerEvents=1;" vertex="1" parent="hKfgm85lbPHSR3TV0tyF-99">
          <mxGeometry x="240" width="60" height="40" as="geometry">
            <mxRectangle width="60" height="40" as="alternateBounds" />
          </mxGeometry>
        </mxCell>
        <mxCell id="hKfgm85lbPHSR3TV0tyF-105" value="" style="shape=partialRectangle;html=1;whiteSpace=wrap;connectable=0;strokeColor=inherit;overflow=hidden;fillColor=none;top=0;left=0;bottom=0;right=0;pointerEvents=1;" vertex="1" parent="hKfgm85lbPHSR3TV0tyF-99">
          <mxGeometry x="300" width="60" height="40" as="geometry">
            <mxRectangle width="60" height="40" as="alternateBounds" />
          </mxGeometry>
        </mxCell>
        <mxCell id="hKfgm85lbPHSR3TV0tyF-106" value="" style="shape=tableRow;horizontal=0;startSize=0;swimlaneHead=0;swimlaneBody=0;strokeColor=inherit;top=0;left=0;bottom=0;right=0;collapsible=0;dropTarget=0;fillColor=none;points=[[0,0.5],[1,0.5]];portConstraint=eastwest;" vertex="1" parent="hKfgm85lbPHSR3TV0tyF-91">
          <mxGeometry y="80" width="360" height="40" as="geometry" />
        </mxCell>
        <mxCell id="hKfgm85lbPHSR3TV0tyF-107" value="k1" style="shape=partialRectangle;html=1;whiteSpace=wrap;connectable=0;strokeColor=inherit;overflow=hidden;fillColor=none;top=0;left=0;bottom=0;right=0;pointerEvents=1;" vertex="1" parent="hKfgm85lbPHSR3TV0tyF-106">
          <mxGeometry width="60" height="40" as="geometry">
            <mxRectangle width="60" height="40" as="alternateBounds" />
          </mxGeometry>
        </mxCell>
        <mxCell id="hKfgm85lbPHSR3TV0tyF-108" value="0, 1" style="shape=partialRectangle;html=1;whiteSpace=wrap;connectable=0;strokeColor=inherit;overflow=hidden;fillColor=none;top=0;left=0;bottom=0;right=0;pointerEvents=1;" vertex="1" parent="hKfgm85lbPHSR3TV0tyF-106">
          <mxGeometry x="60" width="60" height="40" as="geometry">
            <mxRectangle width="60" height="40" as="alternateBounds" />
          </mxGeometry>
        </mxCell>
        <mxCell id="hKfgm85lbPHSR3TV0tyF-109" value="3, 2" style="shape=partialRectangle;html=1;whiteSpace=wrap;connectable=0;strokeColor=inherit;overflow=hidden;fillColor=none;top=0;left=0;bottom=0;right=0;pointerEvents=1;" vertex="1" parent="hKfgm85lbPHSR3TV0tyF-106">
          <mxGeometry x="120" width="60" height="40" as="geometry">
            <mxRectangle width="60" height="40" as="alternateBounds" />
          </mxGeometry>
        </mxCell>
        <mxCell id="hKfgm85lbPHSR3TV0tyF-110" value="4, 3" style="shape=partialRectangle;html=1;whiteSpace=wrap;connectable=0;strokeColor=inherit;overflow=hidden;fillColor=none;top=0;left=0;bottom=0;right=0;pointerEvents=1;" vertex="1" parent="hKfgm85lbPHSR3TV0tyF-106">
          <mxGeometry x="180" width="60" height="40" as="geometry">
            <mxRectangle width="60" height="40" as="alternateBounds" />
          </mxGeometry>
        </mxCell>
        <mxCell id="hKfgm85lbPHSR3TV0tyF-111" value="" style="shape=partialRectangle;html=1;whiteSpace=wrap;connectable=0;strokeColor=inherit;overflow=hidden;fillColor=none;top=0;left=0;bottom=0;right=0;pointerEvents=1;" vertex="1" parent="hKfgm85lbPHSR3TV0tyF-106">
          <mxGeometry x="240" width="60" height="40" as="geometry">
            <mxRectangle width="60" height="40" as="alternateBounds" />
          </mxGeometry>
        </mxCell>
        <mxCell id="hKfgm85lbPHSR3TV0tyF-112" value="" style="shape=partialRectangle;html=1;whiteSpace=wrap;connectable=0;strokeColor=inherit;overflow=hidden;fillColor=none;top=0;left=0;bottom=0;right=0;pointerEvents=1;" vertex="1" parent="hKfgm85lbPHSR3TV0tyF-106">
          <mxGeometry x="300" width="60" height="40" as="geometry">
            <mxRectangle width="60" height="40" as="alternateBounds" />
          </mxGeometry>
        </mxCell>
        <mxCell id="hKfgm85lbPHSR3TV0tyF-113" value="" style="shape=tableRow;horizontal=0;startSize=0;swimlaneHead=0;swimlaneBody=0;strokeColor=inherit;top=0;left=0;bottom=0;right=0;collapsible=0;dropTarget=0;fillColor=none;points=[[0,0.5],[1,0.5]];portConstraint=eastwest;" vertex="1" parent="hKfgm85lbPHSR3TV0tyF-91">
          <mxGeometry y="120" width="360" height="40" as="geometry" />
        </mxCell>
        <mxCell id="hKfgm85lbPHSR3TV0tyF-114" value="k2" style="shape=partialRectangle;html=1;whiteSpace=wrap;connectable=0;strokeColor=inherit;overflow=hidden;fillColor=none;top=0;left=0;bottom=0;right=0;pointerEvents=1;" vertex="1" parent="hKfgm85lbPHSR3TV0tyF-113">
          <mxGeometry width="60" height="40" as="geometry">
            <mxRectangle width="60" height="40" as="alternateBounds" />
          </mxGeometry>
        </mxCell>
        <mxCell id="hKfgm85lbPHSR3TV0tyF-115" value="1, 1" style="shape=partialRectangle;html=1;whiteSpace=wrap;connectable=0;strokeColor=inherit;overflow=hidden;fillColor=none;top=0;left=0;bottom=0;right=0;pointerEvents=1;" vertex="1" parent="hKfgm85lbPHSR3TV0tyF-113">
          <mxGeometry x="60" width="60" height="40" as="geometry">
            <mxRectangle width="60" height="40" as="alternateBounds" />
          </mxGeometry>
        </mxCell>
        <mxCell id="hKfgm85lbPHSR3TV0tyF-116" value="2, 2" style="shape=partialRectangle;html=1;whiteSpace=wrap;connectable=0;strokeColor=inherit;overflow=hidden;fillColor=none;top=0;left=0;bottom=0;right=0;pointerEvents=1;" vertex="1" parent="hKfgm85lbPHSR3TV0tyF-113">
          <mxGeometry x="120" width="60" height="40" as="geometry">
            <mxRectangle width="60" height="40" as="alternateBounds" />
          </mxGeometry>
        </mxCell>
        <mxCell id="hKfgm85lbPHSR3TV0tyF-117" value="5,3" style="shape=partialRectangle;html=1;whiteSpace=wrap;connectable=0;strokeColor=inherit;overflow=hidden;fillColor=none;top=0;left=0;bottom=0;right=0;pointerEvents=1;" vertex="1" parent="hKfgm85lbPHSR3TV0tyF-113">
          <mxGeometry x="180" width="60" height="40" as="geometry">
            <mxRectangle width="60" height="40" as="alternateBounds" />
          </mxGeometry>
        </mxCell>
        <mxCell id="hKfgm85lbPHSR3TV0tyF-118" value="" style="shape=partialRectangle;html=1;whiteSpace=wrap;connectable=0;strokeColor=inherit;overflow=hidden;fillColor=none;top=0;left=0;bottom=0;right=0;pointerEvents=1;" vertex="1" parent="hKfgm85lbPHSR3TV0tyF-113">
          <mxGeometry x="240" width="60" height="40" as="geometry">
            <mxRectangle width="60" height="40" as="alternateBounds" />
          </mxGeometry>
        </mxCell>
        <mxCell id="hKfgm85lbPHSR3TV0tyF-119" value="" style="shape=partialRectangle;html=1;whiteSpace=wrap;connectable=0;strokeColor=inherit;overflow=hidden;fillColor=none;top=0;left=0;bottom=0;right=0;pointerEvents=1;" vertex="1" parent="hKfgm85lbPHSR3TV0tyF-113">
          <mxGeometry x="300" width="60" height="40" as="geometry">
            <mxRectangle width="60" height="40" as="alternateBounds" />
          </mxGeometry>
        </mxCell>
        <mxCell id="hKfgm85lbPHSR3TV0tyF-141" value="" style="shape=table;startSize=0;container=1;collapsible=0;childLayout=tableLayout;" vertex="1" parent="1">
          <mxGeometry x="-490" y="890" width="60" height="160" as="geometry" />
        </mxCell>
        <mxCell id="hKfgm85lbPHSR3TV0tyF-142" value="" style="shape=tableRow;horizontal=0;startSize=0;swimlaneHead=0;swimlaneBody=0;strokeColor=inherit;top=0;left=0;bottom=0;right=0;collapsible=0;dropTarget=0;fillColor=none;points=[[0,0.5],[1,0.5]];portConstraint=eastwest;" vertex="1" parent="hKfgm85lbPHSR3TV0tyF-141">
          <mxGeometry width="60" height="40" as="geometry" />
        </mxCell>
        <mxCell id="hKfgm85lbPHSR3TV0tyF-143" value="1" style="shape=partialRectangle;html=1;whiteSpace=wrap;connectable=0;strokeColor=inherit;overflow=hidden;fillColor=none;top=0;left=0;bottom=0;right=0;pointerEvents=1;" vertex="1" parent="hKfgm85lbPHSR3TV0tyF-142">
          <mxGeometry width="60" height="40" as="geometry">
            <mxRectangle width="60" height="40" as="alternateBounds" />
          </mxGeometry>
        </mxCell>
        <mxCell id="hKfgm85lbPHSR3TV0tyF-144" value="" style="shape=tableRow;horizontal=0;startSize=0;swimlaneHead=0;swimlaneBody=0;strokeColor=inherit;top=0;left=0;bottom=0;right=0;collapsible=0;dropTarget=0;fillColor=none;points=[[0,0.5],[1,0.5]];portConstraint=eastwest;" vertex="1" parent="hKfgm85lbPHSR3TV0tyF-141">
          <mxGeometry y="40" width="60" height="40" as="geometry" />
        </mxCell>
        <mxCell id="hKfgm85lbPHSR3TV0tyF-145" value="" style="shape=partialRectangle;html=1;whiteSpace=wrap;connectable=0;strokeColor=inherit;overflow=hidden;fillColor=none;top=0;left=0;bottom=0;right=0;pointerEvents=1;" vertex="1" parent="hKfgm85lbPHSR3TV0tyF-144">
          <mxGeometry width="60" height="40" as="geometry">
            <mxRectangle width="60" height="40" as="alternateBounds" />
          </mxGeometry>
        </mxCell>
        <mxCell id="hKfgm85lbPHSR3TV0tyF-146" value="" style="shape=tableRow;horizontal=0;startSize=0;swimlaneHead=0;swimlaneBody=0;strokeColor=inherit;top=0;left=0;bottom=0;right=0;collapsible=0;dropTarget=0;fillColor=none;points=[[0,0.5],[1,0.5]];portConstraint=eastwest;" vertex="1" parent="hKfgm85lbPHSR3TV0tyF-141">
          <mxGeometry y="80" width="60" height="40" as="geometry" />
        </mxCell>
        <mxCell id="hKfgm85lbPHSR3TV0tyF-147" value="" style="shape=partialRectangle;html=1;whiteSpace=wrap;connectable=0;strokeColor=inherit;overflow=hidden;fillColor=none;top=0;left=0;bottom=0;right=0;pointerEvents=1;" vertex="1" parent="hKfgm85lbPHSR3TV0tyF-146">
          <mxGeometry width="60" height="40" as="geometry">
            <mxRectangle width="60" height="40" as="alternateBounds" />
          </mxGeometry>
        </mxCell>
        <mxCell id="hKfgm85lbPHSR3TV0tyF-148" value="" style="shape=tableRow;horizontal=0;startSize=0;swimlaneHead=0;swimlaneBody=0;strokeColor=inherit;top=0;left=0;bottom=0;right=0;collapsible=0;dropTarget=0;fillColor=none;points=[[0,0.5],[1,0.5]];portConstraint=eastwest;" vertex="1" parent="hKfgm85lbPHSR3TV0tyF-141">
          <mxGeometry y="120" width="60" height="40" as="geometry" />
        </mxCell>
        <mxCell id="hKfgm85lbPHSR3TV0tyF-149" value="" style="shape=partialRectangle;html=1;whiteSpace=wrap;connectable=0;strokeColor=inherit;overflow=hidden;fillColor=none;top=0;left=0;bottom=0;right=0;pointerEvents=1;" vertex="1" parent="hKfgm85lbPHSR3TV0tyF-148">
          <mxGeometry width="60" height="40" as="geometry">
            <mxRectangle width="60" height="40" as="alternateBounds" />
          </mxGeometry>
        </mxCell>
        <mxCell id="hKfgm85lbPHSR3TV0tyF-170" value="for cur_i, c_k2 in list_k2:&lt;br&gt;prev_c = list_cur_twin[-1]&lt;br&gt;find c_k1 where i_k1 &amp;lt; cur_i&lt;br&gt;cur_c = c_k1 * c_k2&lt;br&gt;list_cur_twin.append(cur_i, prev_c+cur_c)" style="text;html=1;align=center;verticalAlign=middle;resizable=0;points=[];autosize=1;strokeColor=none;fillColor=none;" vertex="1" parent="1">
          <mxGeometry x="-1140" y="920" width="250" height="90" as="geometry" />
        </mxCell>
        <mxCell id="MxvVfjlIRxyCvqryUWun-47" value="" style="shape=table;startSize=0;container=1;collapsible=0;childLayout=tableLayout;" parent="1" vertex="1">
          <mxGeometry x="-2190" y="620" width="240" height="120" as="geometry" />
        </mxCell>
        <mxCell id="MxvVfjlIRxyCvqryUWun-48" value="" style="shape=tableRow;horizontal=0;startSize=0;swimlaneHead=0;swimlaneBody=0;strokeColor=inherit;top=0;left=0;bottom=0;right=0;collapsible=0;dropTarget=0;fillColor=none;points=[[0,0.5],[1,0.5]];portConstraint=eastwest;" parent="MxvVfjlIRxyCvqryUWun-47" vertex="1">
          <mxGeometry width="240" height="40" as="geometry" />
        </mxCell>
        <mxCell id="MxvVfjlIRxyCvqryUWun-49" value="C(k1)" style="shape=partialRectangle;html=1;whiteSpace=wrap;connectable=0;strokeColor=inherit;overflow=hidden;fillColor=none;top=0;left=0;bottom=0;right=0;pointerEvents=1;" parent="MxvVfjlIRxyCvqryUWun-48" vertex="1">
          <mxGeometry width="60" height="40" as="geometry">
            <mxRectangle width="60" height="40" as="alternateBounds" />
          </mxGeometry>
        </mxCell>
        <mxCell id="MxvVfjlIRxyCvqryUWun-50" value="C(k2)" style="shape=partialRectangle;html=1;whiteSpace=wrap;connectable=0;strokeColor=inherit;overflow=hidden;fillColor=none;top=0;left=0;bottom=0;right=0;pointerEvents=1;" parent="MxvVfjlIRxyCvqryUWun-48" vertex="1">
          <mxGeometry x="60" width="60" height="40" as="geometry">
            <mxRectangle width="60" height="40" as="alternateBounds" />
          </mxGeometry>
        </mxCell>
        <mxCell id="MxvVfjlIRxyCvqryUWun-51" value="C(k3)" style="shape=partialRectangle;html=1;whiteSpace=wrap;connectable=0;strokeColor=inherit;overflow=hidden;fillColor=none;top=0;left=0;bottom=0;right=0;pointerEvents=1;" parent="MxvVfjlIRxyCvqryUWun-48" vertex="1">
          <mxGeometry x="120" width="60" height="40" as="geometry">
            <mxRectangle width="60" height="40" as="alternateBounds" />
          </mxGeometry>
        </mxCell>
        <mxCell id="MxvVfjlIRxyCvqryUWun-52" value="C(kn)" style="shape=partialRectangle;html=1;whiteSpace=wrap;connectable=0;strokeColor=inherit;overflow=hidden;fillColor=none;top=0;left=0;bottom=0;right=0;pointerEvents=1;" parent="MxvVfjlIRxyCvqryUWun-48" vertex="1">
          <mxGeometry x="180" width="60" height="40" as="geometry">
            <mxRectangle width="60" height="40" as="alternateBounds" />
          </mxGeometry>
        </mxCell>
        <mxCell id="MxvVfjlIRxyCvqryUWun-53" value="" style="shape=tableRow;horizontal=0;startSize=0;swimlaneHead=0;swimlaneBody=0;strokeColor=inherit;top=0;left=0;bottom=0;right=0;collapsible=0;dropTarget=0;fillColor=none;points=[[0,0.5],[1,0.5]];portConstraint=eastwest;" parent="MxvVfjlIRxyCvqryUWun-47" vertex="1">
          <mxGeometry y="40" width="240" height="40" as="geometry" />
        </mxCell>
        <mxCell id="MxvVfjlIRxyCvqryUWun-54" value="C(l1)" style="shape=partialRectangle;html=1;whiteSpace=wrap;connectable=0;strokeColor=inherit;overflow=hidden;fillColor=none;top=0;left=0;bottom=0;right=0;pointerEvents=1;" parent="MxvVfjlIRxyCvqryUWun-53" vertex="1">
          <mxGeometry width="60" height="40" as="geometry">
            <mxRectangle width="60" height="40" as="alternateBounds" />
          </mxGeometry>
        </mxCell>
        <mxCell id="MxvVfjlIRxyCvqryUWun-55" value="" style="shape=partialRectangle;html=1;whiteSpace=wrap;connectable=0;strokeColor=inherit;overflow=hidden;fillColor=none;top=0;left=0;bottom=0;right=0;pointerEvents=1;" parent="MxvVfjlIRxyCvqryUWun-53" vertex="1">
          <mxGeometry x="60" width="60" height="40" as="geometry">
            <mxRectangle width="60" height="40" as="alternateBounds" />
          </mxGeometry>
        </mxCell>
        <mxCell id="MxvVfjlIRxyCvqryUWun-56" value="" style="shape=partialRectangle;html=1;whiteSpace=wrap;connectable=0;strokeColor=inherit;overflow=hidden;fillColor=none;top=0;left=0;bottom=0;right=0;pointerEvents=1;" parent="MxvVfjlIRxyCvqryUWun-53" vertex="1">
          <mxGeometry x="120" width="60" height="40" as="geometry">
            <mxRectangle width="60" height="40" as="alternateBounds" />
          </mxGeometry>
        </mxCell>
        <mxCell id="MxvVfjlIRxyCvqryUWun-57" value="" style="shape=partialRectangle;html=1;whiteSpace=wrap;connectable=0;strokeColor=inherit;overflow=hidden;fillColor=none;top=0;left=0;bottom=0;right=0;pointerEvents=1;" parent="MxvVfjlIRxyCvqryUWun-53" vertex="1">
          <mxGeometry x="180" width="60" height="40" as="geometry">
            <mxRectangle width="60" height="40" as="alternateBounds" />
          </mxGeometry>
        </mxCell>
        <mxCell id="MxvVfjlIRxyCvqryUWun-58" value="" style="shape=tableRow;horizontal=0;startSize=0;swimlaneHead=0;swimlaneBody=0;strokeColor=inherit;top=0;left=0;bottom=0;right=0;collapsible=0;dropTarget=0;fillColor=none;points=[[0,0.5],[1,0.5]];portConstraint=eastwest;" parent="MxvVfjlIRxyCvqryUWun-47" vertex="1">
          <mxGeometry y="80" width="240" height="40" as="geometry" />
        </mxCell>
        <mxCell id="MxvVfjlIRxyCvqryUWun-59" value="C(m1)" style="shape=partialRectangle;html=1;whiteSpace=wrap;connectable=0;strokeColor=inherit;overflow=hidden;fillColor=none;top=0;left=0;bottom=0;right=0;pointerEvents=1;" parent="MxvVfjlIRxyCvqryUWun-58" vertex="1">
          <mxGeometry width="60" height="40" as="geometry">
            <mxRectangle width="60" height="40" as="alternateBounds" />
          </mxGeometry>
        </mxCell>
        <mxCell id="MxvVfjlIRxyCvqryUWun-60" value="" style="shape=partialRectangle;html=1;whiteSpace=wrap;connectable=0;strokeColor=inherit;overflow=hidden;fillColor=none;top=0;left=0;bottom=0;right=0;pointerEvents=1;" parent="MxvVfjlIRxyCvqryUWun-58" vertex="1">
          <mxGeometry x="60" width="60" height="40" as="geometry">
            <mxRectangle width="60" height="40" as="alternateBounds" />
          </mxGeometry>
        </mxCell>
        <mxCell id="MxvVfjlIRxyCvqryUWun-61" value="" style="shape=partialRectangle;html=1;whiteSpace=wrap;connectable=0;strokeColor=inherit;overflow=hidden;fillColor=none;top=0;left=0;bottom=0;right=0;pointerEvents=1;" parent="MxvVfjlIRxyCvqryUWun-58" vertex="1">
          <mxGeometry x="120" width="60" height="40" as="geometry">
            <mxRectangle width="60" height="40" as="alternateBounds" />
          </mxGeometry>
        </mxCell>
        <mxCell id="MxvVfjlIRxyCvqryUWun-62" value="" style="shape=partialRectangle;html=1;whiteSpace=wrap;connectable=0;strokeColor=inherit;overflow=hidden;fillColor=none;top=0;left=0;bottom=0;right=0;pointerEvents=1;" parent="MxvVfjlIRxyCvqryUWun-58" vertex="1">
          <mxGeometry x="180" width="60" height="40" as="geometry">
            <mxRectangle width="60" height="40" as="alternateBounds" />
          </mxGeometry>
        </mxCell>
      </root>
    </mxGraphModel>
  </diagram>
</mxfile>
